<svg width="26" height="25" viewBox="0 0 26 25" fill="none" xmlns="http://www.w3.org/2000/svg">
	<path d="M17.7512 8.58668L11.0964 15.0871L8.11919 12.1773C7.73549 11.8023 7.10958 11.8023 6.72588 12.1773C6.34219 12.5523 6.34219 13.164 6.72588 13.539L10.3998 17.1297C10.5929 17.3184 10.8447 17.4122 11.0965 17.4122C11.3483 17.4122 11.6001 17.3196 11.7931 17.1297L19.1444 9.94835C19.5281 9.57335 19.5281 8.96162 19.1444 8.58662C18.7571 8.20811 18.1348 8.20811 17.7511 8.58662L17.7512 8.58668Z" fill="#009BB4"/>
	<path d="M12.9348 0.85791C6.1636 0.85791 0.656494 6.24021 0.656494 12.8579C0.656494 19.4756 6.1636 24.8579 12.9348 24.8579C19.7059 24.8579 25.213 19.4756 25.213 12.8579C25.213 6.24021 19.7059 0.85791 12.9348 0.85791ZM12.9348 22.9313C7.25238 22.9313 2.62777 18.4136 2.62777 12.8579C2.62777 7.30221 7.25238 2.78451 12.9348 2.78451C18.6171 2.78451 23.2417 7.30221 23.2417 12.8579C23.2417 18.4136 18.6171 22.9313 12.9348 22.9313Z" fill="#009BB4"/>
</svg>
