<svg width="20" height="20" viewBox="0 0 20 20" fill="none" xmlns="http://www.w3.org/2000/svg">
	<path d="M17.629 3.21973H2.37121C1.17825 3.22129 0.211805 4.18769 0.210205 5.38073V14.6197C0.211768 15.8127 1.17817 16.7791 2.37121 16.7807H17.629C18.822 16.7792 19.7884 15.8128 19.79 14.6197V5.38073C19.7884 4.18777 18.822 3.22133 17.629 3.21973ZM12.9978 9.86513L18.5548 5.23393H18.554C18.5618 5.28236 18.5657 5.3308 18.5657 5.38002V14.6198V14.6323L12.9978 9.86513ZM1.43461 14.6315V14.619V5.38083C1.43461 5.33161 1.43851 5.28317 1.44632 5.23473L7.00412 9.86593L1.43461 14.6315ZM2.40805 4.44173L17.5916 4.44251L10.6612 10.2199C10.28 10.5441 9.72063 10.5441 9.33937 10.2199L2.40805 4.44173ZM2.37133 15.5549V15.5557C2.32992 15.5557 2.28773 15.5526 2.24633 15.5471L7.95653 10.6603L8.55575 11.1603V11.1595C9.39247 11.8572 10.6081 11.8572 11.4447 11.1595L12.044 10.6595L17.7542 15.5477C17.7128 15.554 17.6706 15.5563 17.6292 15.5563L2.37133 15.5549Z" fill="black"/>
</svg>
