<svg width="22" height="26" viewBox="0 0 22 26" fill="none" xmlns="http://www.w3.org/2000/svg">
	<path fill-rule="evenodd" clip-rule="evenodd" d="M7.29456 14.7418C6.86544 14.7418 6.51755 15.0887 6.51755 15.5178V23.8674H1.91347C1.79215 23.8664 1.6939 23.7682 1.69289 23.6458V11.7609L11.0001 2.45468L20.3064 11.7609V23.6476C20.3054 23.769 20.2071 23.8672 20.0858 23.8682H15.4827V15.5176C15.4827 15.0884 15.1348 14.7416 14.7057 14.7416L7.29456 14.7418ZM14.7058 25.4196H20.0879C21.0664 25.4186 21.8584 24.6256 21.8604 23.648V11.4394C21.8604 11.2339 21.7782 11.0364 21.6329 10.891L11.5497 0.808898C11.2459 0.505107 10.7546 0.505107 10.4509 0.808898L0.368739 10.891C0.22336 11.0364 0.142151 11.2339 0.142151 11.4394V23.648C0.143154 24.6256 0.935199 25.4186 1.91374 25.4196H7.29578C7.7239 25.4196 8.07179 25.0717 8.07179 24.6436V16.294H13.93V24.6436C13.93 25.0728 14.2779 25.4196 14.706 25.4196H14.7058Z" fill="black"/>
</svg>
