<svg width="24" height="24" viewBox="0 0 24 24" fill="none" xmlns="http://www.w3.org/2000/svg">
	<path d="M20.6204 6.4239C19.7696 4.51471 17.8604 3.27313 15.7446 3.27313C13.9046 3.27313 12.2031 4.21649 11.2139 5.75736C11.1222 5.91818 11.168 6.12572 11.3289 6.24072C11.4897 6.33237 11.6972 6.28654 11.8122 6.12572C12.663 4.76909 14.1357 3.96409 15.768 3.96409C17.608 3.96409 19.2638 5.04491 20.023 6.70063C20.0688 6.83899 20.2072 6.90727 20.3446 6.90727C20.3904 6.90727 20.4363 6.90727 20.483 6.88391C20.6204 6.79227 20.6887 6.58473 20.6204 6.42391L20.6204 6.4239ZM21.9537 8.60891C21.9537 12.0355 19.1703 14.8424 15.7203 14.8424C12.2937 14.8424 9.48681 12.0589 9.48681 8.60891C9.48681 5.18237 12.2703 2.37545 15.7203 2.37545C19.1712 2.37635 21.9537 5.15892 21.9537 8.60891ZM23.3571 8.60891C23.3571 4.39968 19.9306 0.973145 15.7213 0.973145C11.5121 0.973145 8.08556 4.39968 8.08556 8.60891C8.08556 10.2881 8.63719 11.8289 9.55719 13.0705C9.53383 13.0938 9.53383 13.0938 9.51137 13.1163L1.16214 21.4664C0.702139 21.9264 0.702139 22.7081 1.16214 23.1681C1.39214 23.3981 1.71377 23.5131 2.01295 23.5131C2.31214 23.5131 2.63377 23.3981 2.86377 23.1681L11.213 14.8188C11.2364 14.7955 11.2364 14.7955 11.2588 14.773C12.5238 15.693 14.0646 16.2446 15.7204 16.2446C19.9305 16.2222 23.3571 12.7946 23.3571 8.60887" fill="black"/>
</svg>
