<svg width="96" height="96" viewBox="0 0 96 96" fill="none" xmlns="http://www.w3.org/2000/svg">
	<circle cx="48" cy="48" r="48" fill="#009BB4"/>
	<path d="M31.1979 26.6191H32.8619V20.1871H35.1552V18.9071H28.9045V20.1871H31.1979V26.6191ZM39.2505 24.3258C39.2719 23.8778 39.2932 23.0885 38.9305 22.3525C38.4399 21.3498 37.5225 21.0511 36.7545 21.0511C36.1679 21.0511 35.6559 21.2218 35.2399 21.4991C34.3332 22.1285 34.1199 23.1738 34.1199 24.0485C34.1199 24.9125 34.3225 25.6378 34.8132 26.1498C35.3785 26.7365 36.2532 26.8218 36.7119 26.8218C37.5012 26.8218 38.2052 26.6085 38.5999 26.1925C39.0372 25.7338 39.0905 25.2751 39.1119 25.0191H37.6719C37.5225 25.6165 37.1279 25.7658 36.7332 25.7658C35.6345 25.7658 35.6345 24.6778 35.6345 24.3258H39.2505ZM35.6879 23.3338C35.7199 22.7045 36.0079 22.1285 36.7012 22.1285C37.6185 22.1285 37.6399 23.0885 37.6399 23.3338H35.6879ZM44.687 23.1418C44.6763 21.6805 43.4923 21.1258 42.4896 21.1258C41.775 21.1258 39.9723 21.4671 39.9723 23.9205C39.9723 24.7845 40.1856 25.4991 40.655 26.0431C41.1456 26.5978 41.775 26.7578 42.4896 26.7578C43.1616 26.7578 43.6416 26.5871 44.0256 26.2565C44.6443 25.7338 44.6976 25.0831 44.719 24.6671H43.1616C43.0976 25.6271 42.607 25.7018 42.4363 25.7018C42.319 25.7018 42.159 25.6805 42.0096 25.5205C41.647 25.1258 41.615 24.1658 41.615 23.8671C41.615 23.2805 41.7003 22.1498 42.447 22.1498C43.055 22.1498 43.119 22.9498 43.1403 23.1418H44.687ZM45.46 26.6191H47.0493L47.0386 23.3231C47.0386 22.4805 47.604 22.2245 48.052 22.2245C48.9373 22.2245 48.9373 23.0885 48.9373 23.3978V26.6191H50.5053V23.3445C50.5053 22.6405 50.3453 22.1498 50.1533 21.8831C49.8973 21.5525 49.3853 21.1578 48.5853 21.1578C47.604 21.1578 47.2093 21.7125 47.028 21.9685V18.9178H45.46V26.6191ZM56.8235 24.3258C56.8448 23.8778 56.8661 23.0885 56.5035 22.3525C56.0128 21.3498 55.0955 21.0511 54.3275 21.0511C53.7408 21.0511 53.2288 21.2218 52.8128 21.4991C51.9061 22.1285 51.6928 23.1738 51.6928 24.0485C51.6928 24.9125 51.8955 25.6378 52.3861 26.1498C52.9515 26.7365 53.8261 26.8218 54.2848 26.8218C55.0741 26.8218 55.7781 26.6085 56.1728 26.1925C56.6101 25.7338 56.6635 25.2751 56.6848 25.0191H55.2448C55.0955 25.6165 54.7008 25.7658 54.3061 25.7658C53.2075 25.7658 53.2075 24.6778 53.2075 24.3258H56.8235ZM53.2608 23.3338C53.2928 22.7045 53.5808 22.1285 54.2741 22.1285C55.1915 22.1285 55.2128 23.0885 55.2128 23.3338H53.2608ZM57.8972 26.6191H59.4865V23.4511C59.4865 23.0885 59.4865 22.2351 60.4785 22.2351C61.3532 22.2351 61.3639 23.0031 61.3639 23.4191V26.6191H62.9532V23.9205C62.9532 23.1205 62.9745 22.2351 63.9239 22.2351C64.7452 22.2351 64.8305 22.8751 64.8305 23.4511V26.6191H66.4199V23.5791C66.4199 23.1098 66.4412 22.4591 66.1532 21.9898C66.0359 21.7765 65.5985 21.1258 64.5105 21.1258C63.9559 21.1258 63.2305 21.2645 62.7825 22.1285C62.6759 21.8725 62.3239 21.1151 61.0865 21.1151C60.0092 21.1151 59.5932 21.6911 59.4225 21.9258L59.3692 21.2325H57.8439C57.8759 21.5738 57.8972 21.9045 57.8972 22.2458V26.6191ZM18.18 41.6191H23.46V40.3391H19.8333V38.2591H23.1186V37.0005H19.8333V35.1658H23.3426V33.9071H18.18V41.6191ZM24.6368 41.6191H26.2261V38.4511C26.2261 38.0885 26.2261 37.2351 27.2181 37.2351C28.0928 37.2351 28.1035 38.0031 28.1035 38.4191V41.6191H29.6928V38.9205C29.6928 38.1205 29.7141 37.2351 30.6635 37.2351C31.4848 37.2351 31.5701 37.8751 31.5701 38.4511V41.6191H33.1595V38.5791C33.1595 38.1098 33.1808 37.4591 32.8928 36.9898C32.7755 36.7765 32.3381 36.1258 31.2501 36.1258C30.6955 36.1258 29.9701 36.2645 29.5221 37.1285C29.4155 36.8725 29.0635 36.1151 27.8261 36.1151C26.7488 36.1151 26.3328 36.6911 26.1621 36.9258L26.1088 36.2325H24.5835C24.6155 36.5738 24.6368 36.9045 24.6368 37.2458V41.6191ZM34.6244 36.2325V43.6885H36.235V41.0005C36.3737 41.1818 36.7684 41.6938 37.739 41.6938C39.2964 41.6938 40.0857 40.3391 40.0857 38.8138C40.0857 37.1711 39.243 36.1258 37.8457 36.1258C37.5897 36.1258 36.6937 36.1365 36.203 37.0005L36.1604 36.2325H34.6244ZM37.3337 40.6591C36.171 40.6591 36.1604 39.2938 36.1604 38.9738C36.1604 37.5231 36.8857 37.1391 37.3977 37.1391C38.3257 37.1391 38.4857 38.2378 38.4857 38.8778C38.4857 39.9445 38.0804 40.6591 37.3337 40.6591ZM41.3052 41.6191H42.8732V37.3525H43.8759V36.2325H42.8732V35.6031C42.8732 35.3258 42.8732 34.8991 43.6839 34.8991C43.8119 34.8991 43.8545 34.9098 44.0145 34.9311V33.8325C43.5665 33.7791 43.2679 33.7791 43.1612 33.7791C41.6252 33.7791 41.3052 34.5471 41.3052 35.4965V36.2325H40.5052V37.3525H41.3052V41.6191ZM49.2089 39.3258C49.2302 38.8778 49.2515 38.0885 48.8889 37.3525C48.3982 36.3498 47.4809 36.0511 46.7129 36.0511C46.1262 36.0511 45.6142 36.2218 45.1982 36.4991C44.2915 37.1285 44.0782 38.1738 44.0782 39.0485C44.0782 39.9125 44.2809 40.6378 44.7715 41.1498C45.3369 41.7365 46.2115 41.8218 46.6702 41.8218C47.4595 41.8218 48.1635 41.6085 48.5582 41.1925C48.9955 40.7338 49.0489 40.2751 49.0702 40.0191H47.6302C47.4809 40.6165 47.0862 40.7658 46.6915 40.7658C45.5929 40.7658 45.5929 39.6778 45.5929 39.3258H49.2089ZM45.6462 38.3338C45.6782 37.7045 45.9662 37.1285 46.6595 37.1285C47.5769 37.1285 47.5982 38.0885 47.5982 38.3338H45.6462ZM50.2933 41.6191H51.8826L51.872 38.3231C51.872 37.4805 52.4373 37.2245 52.8853 37.2245C53.7706 37.2245 53.7706 38.0885 53.7706 38.3978V41.6191H55.3386V38.3445C55.3386 37.6405 55.1786 37.1498 54.9866 36.8831C54.7306 36.5525 54.2186 36.1578 53.4186 36.1578C52.4373 36.1578 52.0426 36.7125 51.8613 36.9685V33.9178H50.2933V41.6191ZM56.7715 41.6191H58.3501V33.9071H56.7715V41.6191ZM59.6869 36.2325V39.5818C59.6869 39.8485 59.6869 40.5951 60.0389 41.0325C60.3375 41.4271 60.9349 41.7578 61.6602 41.7578C62.6842 41.7578 63.0895 41.1391 63.2495 40.9045L63.3029 41.6191H64.8389C64.8175 41.4698 64.8069 41.3738 64.7962 41.2245C64.7962 41.0858 64.7855 40.9471 64.7642 39.7845V36.2325H63.1429V38.9525C63.1429 39.8698 63.1429 40.6271 62.1295 40.6271C61.2869 40.6271 61.2869 39.9125 61.2869 39.4431V36.2325H59.6869ZM66.2824 41.6191H67.8717V38.4618C67.8717 38.0458 67.9677 37.7791 68.0637 37.6405C68.2344 37.3845 68.5437 37.2245 68.885 37.2245C69.2904 37.2245 69.5357 37.4485 69.653 37.6831C69.7384 37.8538 69.7384 38.0458 69.7384 38.2698V41.6191H71.349V38.7071C71.349 37.7045 71.317 37.4271 71.1997 37.0965C71.061 36.7231 70.613 36.0831 69.557 36.0831C68.3837 36.0831 67.957 36.7765 67.8077 37.0218L67.765 36.2111H66.2504C66.2824 36.5845 66.2824 37.1711 66.2824 37.1925V41.6191ZM76.4085 36.2538L76.3552 36.9685C76.1952 36.7338 75.8325 36.2005 74.8512 36.2005C73.3045 36.2005 72.5472 37.5018 72.5472 38.8671C72.5472 40.1685 73.2725 41.5125 74.8192 41.5125C75.2032 41.5125 75.7685 41.4378 76.2699 40.7765C76.2592 41.5978 76.2592 41.7898 76.1952 42.0565C76.0885 42.5365 75.6832 42.7605 75.2139 42.7605C74.3712 42.7605 74.2965 42.1738 74.2752 42.0138H72.7605C72.8565 43.6458 74.3605 43.7418 75.1285 43.7418C76.1632 43.7418 77.8165 43.5498 77.8165 41.5658V37.5871C77.8165 37.0431 77.8485 36.6805 77.8912 36.2538H76.4085ZM74.1259 38.8671C74.1259 37.7151 74.6165 37.2565 75.2139 37.2565C76.1739 37.2565 76.2912 38.2911 76.2912 38.8991C76.2912 39.1338 76.2912 40.4351 75.1819 40.4351C74.1259 40.4351 74.1259 39.1338 74.1259 38.8671Z" fill="white"/>
	<path d="M34.8188 81.3962H40.337C41.336 81.3962 42.1512 80.5971 42.1804 79.6054C43.6562 80.3725 45.2823 80.8887 47.0307 81.1425C47.0657 81.1468 47.1007 81.1498 47.1357 81.1498H57.5248C58.5996 81.1498 59.1888 80.6685 59.495 80.266C60.0594 79.5208 60.0652 78.5131 59.9078 77.641C60.8425 77.2371 61.4609 76.6771 61.7496 75.9742C62.015 75.3267 61.9932 74.5902 61.684 73.7779C62.489 73.1377 63.0009 72.2131 63.0607 71.2448C63.1015 70.5637 62.9178 69.9206 62.5415 69.3854C63.5784 68.5162 63.9473 67.0841 63.7315 65.9437C63.4909 64.6647 62.5882 63.8714 61.3763 63.8714L53.4691 63.87C54.3426 60.4837 54.4608 57.5188 53.8337 54.8327C53.8308 54.8195 53.8279 54.8064 53.8235 54.7948C53.0754 52.2354 51.5062 51.8387 50.3206 51.9568C49.4047 52.0472 48.6887 52.8114 48.6522 53.7316C48.5428 56.5666 47.8137 58.9814 46.4268 61.1135C45.3841 62.7148 43.9812 64.1337 42.1581 65.4289C42.0196 64.5481 41.2554 63.8714 40.3367 63.8714L34.8184 63.8699C33.8019 63.8699 32.9736 64.6968 32.9736 65.7147V79.5512C32.9751 80.5677 33.802 81.396 34.8184 81.396L34.8188 81.3962ZM50.1094 53.7886C50.1167 53.5917 50.2698 53.4269 50.4652 53.408C51.1113 53.3424 51.9163 53.4882 52.418 55.1857C53.0071 57.7261 52.8584 60.5729 51.96 63.8717H50.6782C50.2757 63.8717 49.949 64.1983 49.949 64.6008C49.949 65.0033 50.2757 65.33 50.6782 65.33H61.3723C61.9965 65.33 62.2181 65.8112 62.294 66.2152C62.5011 67.3119 61.8521 68.2685 61.1069 68.5602C60.8575 68.6579 60.6811 68.8839 60.649 69.1493C60.6154 69.4147 60.7321 69.6773 60.9494 69.8333C61.5298 70.2474 61.6246 70.7812 61.6013 71.1574C61.559 71.8414 61.104 72.5006 60.4127 72.8768C60.0627 73.0679 59.93 73.5039 60.1167 73.8583C60.4608 74.5116 60.5556 75.0381 60.3981 75.4231C60.1765 75.9641 59.424 76.301 58.8304 76.4891C58.4556 76.6073 58.2427 77.0025 58.3492 77.3816C58.6073 78.2989 58.6015 79.031 58.3302 79.3883C58.1771 79.591 57.9044 79.6945 57.5223 79.6945L47.1884 79.6916C45.3509 79.4175 43.668 78.8283 42.1805 77.9373V67.1778C47.2948 63.8469 49.8891 59.4632 50.1094 53.7889L50.1094 53.7886ZM34.4339 65.7147C34.4339 65.5018 34.6074 65.3283 34.8204 65.3283H40.3386C40.5515 65.3283 40.7251 65.5018 40.7251 65.7147V79.5512C40.7251 79.7641 40.5515 79.9377 40.3386 79.9377H34.8189C34.606 79.9377 34.4324 79.7641 34.4324 79.5512L34.4339 65.7147Z" fill="white"/>
</svg>
