<svg width="24" height="24" viewBox="0 0 24 24" fill="none" xmlns="http://www.w3.org/2000/svg">
	<g clip-path="url(#clip0_720_221)">
		<path d="M15.5208 16.674C15.2289 16.674 14.9286 16.5587 14.7064 16.3352L7.66499 9.29385C7.21091 8.83978 7.21091 8.10944 7.66499 7.6638C8.11906 7.20972 8.84939 7.20972 9.29504 7.6638L16.3364 14.7052C16.7905 15.1593 16.7905 15.8896 16.3364 16.3352C16.113 16.5587 15.8127 16.674 15.5208 16.674H15.5208Z" fill="#C6C6C6"/>
		<path d="M12.0001 24C5.3815 24 6.10352e-05 18.6186 6.10352e-05 12C6.10352e-05 5.38144 5.3815 0 12.0001 0C18.6186 0 24.0001 5.38144 24.0001 12C24.0001 18.6186 18.6186 24 12.0001 24ZM12.0001 2.30602C6.65706 2.30602 2.30639 6.65669 2.30639 11.9997C2.30639 17.3427 6.65706 21.6934 12.0001 21.6934C17.3431 21.6934 21.6937 17.3427 21.6937 11.9997C21.6937 6.65669 17.3431 2.30602 12.0001 2.30602Z" fill="#C6C6C6"/>
		<path d="M8.4794 16.674C8.1875 16.674 7.88719 16.5587 7.66499 16.3352C7.21091 15.8812 7.21091 15.1508 7.66499 14.7052L14.7064 7.6638C15.1604 7.20972 15.8908 7.20972 16.3364 7.6638C16.7905 8.11787 16.7905 8.8482 16.3364 9.29385L9.29504 16.3352C9.07161 16.5587 8.77132 16.674 8.47943 16.674H8.4794Z" fill="#C6C6C6"/>
	</g>
	<defs>
		<clipPath id="clip0_720_221">
			<rect width="24" height="24" fill="white"/>
		</clipPath>
	</defs>
</svg>
