<svg width="21" height="20" viewBox="0 0 21 20" fill="none" xmlns="http://www.w3.org/2000/svg">
	<path d="M10.5181 0.993625C10.2252 1.02722 9.98219 1.30535 9.98689 1.59987V2.23737C8.87205 2.37643 7.91729 2.89752 7.19929 3.63736C6.35553 4.50612 5.82273 5.66316 5.59929 6.89356L4.79929 11.2936C4.63367 12.2068 4.29461 12.3943 3.81179 12.7123C3.57039 12.8717 3.27585 13.0412 3.01803 13.3436C2.76021 13.6459 2.58679 14.0873 2.58679 14.5998C2.58679 15.4756 3.31101 16.1998 4.18679 16.1998H7.59299C7.6969 17.7584 9.00237 18.9998 10.5868 18.9998C12.1712 18.9998 13.4766 17.7584 13.5806 16.1998H16.9868C17.8626 16.1998 18.5868 15.4756 18.5868 14.5998C18.5868 14.0873 18.4134 13.6459 18.1556 13.3436C17.8978 13.0412 17.6032 12.8717 17.3618 12.7123C16.879 12.3944 16.5399 12.2069 16.3743 11.2936L15.5743 6.89356C15.3509 5.6631 14.8181 4.50596 13.9743 3.63736C13.2563 2.89752 12.3016 2.37643 11.1867 2.23737V1.59987C11.1922 1.25925 10.8562 0.954545 10.5179 0.993625H10.5181ZM10.5869 3.39982C11.64 3.39982 12.465 3.80216 13.1119 4.46858C13.7588 5.135 14.2127 6.08031 14.3994 7.10618L15.1994 11.5062C15.4267 12.7554 16.1869 13.371 16.7056 13.7124C16.965 13.8835 17.1494 14.0093 17.2431 14.1186C17.3369 14.228 17.3869 14.3139 17.3869 14.5999C17.3869 14.8319 17.2189 14.9999 16.9869 14.9999H4.18687C3.95483 14.9999 3.78687 14.8319 3.78687 14.5999C3.78687 14.3139 3.83687 14.228 3.93062 14.1186C4.02437 14.0093 4.20874 13.8835 4.46812 13.7124C4.98688 13.371 5.74702 12.7553 5.97436 11.5062L6.77436 7.10618C6.96108 6.0804 7.41498 5.13508 8.06186 4.46858C8.70874 3.80208 9.53374 3.39982 10.5869 3.39982H10.5869ZM8.82438 16.1998H12.3494C12.2478 17.1053 11.5236 17.7998 10.5869 17.7998C9.65016 17.7998 8.92594 17.1053 8.82438 16.1998Z" fill="black"/>
</svg>
