<svg width="28" height="28" viewBox="0 0 28 28" fill="none" xmlns="http://www.w3.org/2000/svg">
	<path d="M22.1486 20.0202L23.1286 20.5802L23.157 20.5245C24.5285 18.6202 25.257 16.353 25.257 13.973C25.2854 10.9216 24.137 8.06445 22.0084 5.93729C19.88 3.78042 17.0516 2.57617 14.0284 2.57617C7.78416 2.57617 2.68844 7.67189 2.68844 13.9162C2.68844 20.1605 7.757 25.2276 13.9999 25.2276C15.0914 25.2276 16.1283 25.0876 17.1084 24.7792L17.1642 24.7507L16.94 23.6307L16.8558 23.6592C15.9042 23.9392 14.9242 24.1076 13.9443 24.1076C8.34434 24.1076 3.78006 19.5433 3.78006 13.9433C3.78006 8.34333 8.34434 3.77905 13.9443 3.77905C19.5443 3.77905 24.1086 8.34333 24.1086 13.9433C24.1086 16.0991 23.4371 18.1719 22.1486 19.9633L22.1486 20.0202Z" fill="#C6C6C6"/>
	<path d="M23.5757 4.48011C21.0284 1.90434 17.6114 0.504395 14.0283 0.504395C12.7683 0.504395 11.5641 0.672831 10.4168 1.00862L10.3611 1.03706L10.5568 2.07283L10.6411 2.04439C11.7611 1.73595 12.9095 1.56862 14.0296 1.56862C20.8896 1.56862 26.4896 7.14006 26.4896 14.0286C26.4885 20.9161 20.8885 26.4601 14.0285 26.4601C7.13994 26.4316 1.5685 20.8315 1.5685 13.9715C1.5685 11.3673 2.35272 8.90294 3.86428 6.77578L3.92006 6.72L2.99583 6.18844L2.9674 6.24423C1.34426 8.51158 0.504265 11.1999 0.504265 14.0285C0.504265 21.4485 6.55282 27.4971 13.9728 27.4971C21.4214 27.4971 27.4971 21.4485 27.4971 14.0285C27.496 10.4159 26.1245 7.02851 23.576 4.47995L23.5757 4.48011Z" fill="#C6C6C6"/>
	<path d="M10.08 12.6845L8.62422 14.1402L12.6285 18.1445L19.3485 11.4245L17.8916 9.96875L12.6285 15.2319L10.08 12.6845Z" fill="#C6C6C6"/>
</svg>
