<svg width="23" height="26" viewBox="0 0 23 26" fill="none" xmlns="http://www.w3.org/2000/svg">
	<path fill-rule="evenodd" clip-rule="evenodd" d="M1.29559 23.1494H9.42059C9.71918 23.1494 9.96191 22.9067 9.96191 22.6081C9.96191 22.3095 9.71918 22.0668 9.42059 22.0668H1.29559V3.64941H17.5456V5.27441C17.5456 5.57401 17.7883 5.81675 18.0869 5.81675C18.3855 5.81675 18.6282 5.57401 18.6282 5.27441V2.02441C18.6282 1.12762 17.901 0.399414 17.0032 0.399414H1.83691C0.939108 0.399414 0.211914 1.12762 0.211914 2.02441V23.6918C0.211914 24.5886 0.939108 25.3168 1.83691 25.3168H9.42059C9.71918 25.3168 9.96191 25.074 9.96191 24.7744C9.96191 24.4759 9.71918 24.2331 9.42059 24.2331H1.83691C1.53833 24.2331 1.29559 23.9904 1.29559 23.6918V23.1494ZM17.5456 2.56677V2.02444C17.5456 1.72586 17.3029 1.48312 17.0033 1.48312H1.83694C1.53836 1.48312 1.29562 1.72585 1.29562 2.02444V2.56677H17.5456Z" fill="black"/>
	<path fill-rule="evenodd" clip-rule="evenodd" d="M22.9619 8.52441C22.9619 8.0938 22.7903 7.68043 22.4856 7.37573C22.1809 7.07104 21.7686 6.89941 21.3369 6.89941H12.6706C12.2389 6.89941 11.8256 7.07106 11.5209 7.37573C11.2162 7.68043 11.0456 8.09378 11.0456 8.52441V23.6918C11.0456 24.1224 11.2162 24.5358 11.5209 24.8405C11.8256 25.1451 12.2389 25.3168 12.6706 25.3168H21.3369C21.7686 25.3168 22.1809 25.1451 22.4856 24.8405C22.7903 24.5358 22.9619 24.1224 22.9619 23.6918V8.52441ZM21.8782 23.1494V23.6917C21.8782 23.8349 21.8214 23.9731 21.7198 24.0746C21.6182 24.1762 21.4801 24.2331 21.3369 24.2331H12.6706C12.5264 24.2331 12.3882 24.1762 12.2877 24.0746C12.1851 23.9731 12.1282 23.835 12.1282 23.6917V23.1494H21.8782ZM12.1282 10.1494V22.0668H21.8782V10.1494H12.1282ZM21.8782 9.06675H12.1282V8.52441C12.1282 8.38121 12.1851 8.24309 12.2877 8.14151C12.3882 8.03995 12.5264 7.98307 12.6706 7.98307H21.3369C21.4801 7.98307 21.6182 8.03995 21.7198 8.14151C21.8214 8.24308 21.8783 8.3812 21.8783 8.52441L21.8782 9.06675Z" fill="black"/>
</svg>
