<svg width="66" height="66" viewBox="0 0 66 66" fill="none" xmlns="http://www.w3.org/2000/svg">
	<path d="M53.46 52.7995H12.54V30.9806C12.5426 29.5627 13.1949 28.2246 14.3086 27.3506L32.2342 13.2715H33.7656L51.6912 27.3506C52.805 28.2246 53.4572 29.5627 53.4598 30.9806L53.46 52.7995ZM16.5 48.8396H49.5V30.9806C49.5 30.7769 49.4098 30.5836 49.2499 30.4572L33.0001 17.7008L16.7502 30.4652C16.5904 30.5915 16.5001 30.7823 16.5001 30.9859L16.5 48.8396Z" fill="#605E5C"/>
	<path d="M35.64 39.5996V48.8397H30.36V39.5996H35.64ZM35.64 35.6396H30.36C28.1737 35.6396 26.4 37.4134 26.4 39.5996V48.8397C26.4 51.0259 28.1737 52.7997 30.36 52.7997H35.64C37.8262 52.7997 39.6 51.0259 39.6 48.8397V39.5996C39.6 37.4134 37.8262 35.6396 35.64 35.6396Z" fill="#605E5C"/>
	<path d="M34.3972 25.6566C36.2638 27.5231 33.4639 30.323 31.5974 28.4564C29.7308 26.5899 32.5307 23.79 34.3972 25.6566Z" fill="#605E5C"/>
	<path d="M17.82 14.5195H21.78V25.0795H17.82V14.5195Z" fill="#605E5C"/>
</svg>
