<svg width="12" height="12" viewBox="0 0 12 12" fill="none" xmlns="http://www.w3.org/2000/svg">
	<path d="M5.99999 11.9043C2.74367 11.9043 0.0956726 9.25618 0.0956726 6.00002C0.0956726 2.74386 2.74383 0.0957031 5.99999 0.0957031C9.25615 0.0957031 11.9043 2.74386 11.9043 6.00002C11.9043 9.25618 9.25615 11.9043 5.99999 11.9043ZM5.99999 1.09554C3.29567 1.09554 1.09567 3.29554 1.09567 5.99986C1.09567 8.70482 3.29503 10.9042 5.99999 10.9042C8.70367 10.9042 10.9043 8.70546 10.9043 5.99986C10.9043 3.29618 8.70367 1.09554 5.99999 1.09554Z" fill="black"/>
	<path d="M5.3544 4.86865H6.64565V9.39297H5.3544V4.86865Z" fill="black"/>
	<path d="M6.82063 3.42675C6.82063 4.52112 5.17935 4.52112 5.17935 3.42675C5.17935 2.33301 6.82063 2.33301 6.82063 3.42675" fill="black"/>
</svg>
