<svg xmlns="http://www.w3.org/2000/svg" width="32" height="31" fill="none" viewBox="0 0 32 31">
  <g clip-path="url(#a)">
    <path fill="#000" d="M27.628 7.502c-1.174-2.573-3.807-4.247-6.724-4.247a7.471 7.471 0 0 0-6.249 3.349.49.49 0 0 0 .159.651.516.516 0 0 0 .666-.155c1.174-1.828 3.205-2.913 5.456-2.913 2.537 0 4.82 1.456 5.868 3.688.063.186.254.278.443.278.064 0 .127 0 .191-.031a.525.525 0 0 0 .19-.62Zm1.838 2.945c0 4.618-3.838 8.402-8.596 8.402-4.726 0-8.596-3.752-8.596-8.402 0-4.618 3.838-8.402 8.596-8.402 4.76.002 8.596 3.752 8.596 8.402Zm1.936 0c0-5.673-4.726-10.292-10.53-10.292-5.805 0-10.53 4.619-10.53 10.292 0 2.263.76 4.34 2.029 6.013l-.064.062L.793 27.777a1.62 1.62 0 0 0 0 2.293c.317.31.76.465 1.174.465.412 0 .856-.155 1.173-.465l11.514-11.253.063-.062a10.603 10.603 0 0 0 6.153 1.984c5.806-.03 10.532-4.65 10.532-10.292"/>
  </g>

</svg>