<svg xmlns="http://www.w3.org/2000/svg" width="44" height="44" fill="none" viewBox="0 0 44 44">
  <path fill="#000" d="M32.607 39.115c.746 0 1.38-.053 1.885-.117l.353-.046.208-.287c2.045-2.86 2.562-6.483 2.634-9.018l.01-.382-.283-.253c-2.549-2.263-6.816-3.882-10.194-3.845l-.266.004-.215.16c-.878.655-2.403 2.253-3.273 3.332-1.266-.632-2.8-2.036-4.568-4.186-1.769-2.152-2.851-3.928-3.226-5.29 1.229-.645 3.09-1.835 3.903-2.567l.198-.18.055-.26c.686-3.288-.074-7.806-1.803-10.744l-.196-.331-.377-.064c-2.133-.357-6.833-.18-10.156 1.329l-.323.146-.113.337c-1.473 4.379-.332 12.49 7.308 22.151 7.389 8.644 14.478 10.111 18.438 10.111ZM8.306 7.715c2.875-1.189 6.68-1.318 8.497-1.113 1.342 2.507 1.956 6.235 1.473 8.972-.944.77-2.958 2.007-3.864 2.404l-.564.248.085.61c.24 1.753 1.45 3.938 3.702 6.676 2.251 2.738 4.16 4.346 5.833 4.92l.583.2.352-.505c.566-.81 2.168-2.55 3.106-3.326 2.783.055 6.325 1.38 8.525 3.185-.101 2.184-.569 5.09-2.112 7.43-3.156.313-10.567-.182-18.49-9.451-7.013-8.867-8.228-16.352-7.126-20.25Z"/>
</svg>
