<svg width="24" height="27" viewBox="0 0 24 27" fill="none" xmlns="http://www.w3.org/2000/svg">
	<path d="M18.4735 26.9116C15.4052 26.9116 10.387 24.4432 6.15001 18.9102C2.35349 14.0011 0.326526 7.95702 1.10653 3.89944C1.28832 2.96285 2.95294 1.54412 4.35653 0.494487C4.69473 0.210741 5.11011 0.0400391 5.55294 0.0400391C6.12473 0.0400391 6.64473 0.323785 7.00936 0.778234L7.06014 0.892396L9.24372 7.30563C9.60731 8.44062 9.37372 9.49025 8.64551 10.2285C8.2291 10.6253 7.76193 11.0232 7.52731 11.2504C7.39731 12.1017 7.86551 12.7257 8.95731 14.0026C9.29552 14.3993 9.6591 14.8538 10.0491 15.3359C10.4655 15.8746 10.8027 16.3579 11.0891 16.8112C12.0255 18.1734 12.4409 18.7686 13.2991 18.7409L14.3655 17.7766C14.7555 17.4075 15.2491 17.2379 15.7691 17.2379C16.2109 17.2379 16.6527 17.3798 17.0955 17.607L22.5038 21.0685L22.582 21.1815C23.2838 22.0028 23.1802 23.3085 22.4002 24.0457C21.4384 25.0953 19.6967 26.8543 18.7867 26.9121H18.4739L18.4735 26.9116ZM2.48349 4.23966C1.80808 7.81543 3.75808 13.4336 7.21627 17.9171C10.5963 22.3151 15.2245 25.3799 18.4745 25.3799H18.7081C19.0717 25.2668 20.3463 24.1319 21.4381 22.9392L21.4899 22.8827C21.6717 22.712 21.7235 22.4282 21.5935 22.2298L16.4463 18.9103C16.2645 18.7972 16.0299 18.7396 15.8227 18.7396C15.6927 18.7396 15.4845 18.7684 15.3291 18.938L13.9255 20.2149L13.7173 20.2437C13.5873 20.2725 13.4309 20.2725 13.3009 20.2725C11.7409 20.2725 10.9345 19.081 9.99918 17.7188C9.71276 17.2932 9.3756 16.811 8.9856 16.3289C8.62201 15.8467 8.25739 15.4211 7.91918 15.0232C6.69739 13.5756 5.7356 12.4407 6.20277 10.5962C6.27995 10.369 6.27995 10.369 7.73635 9.03558C8.02276 8.75183 8.09993 8.32622 7.91815 7.81525L5.83815 1.7147C5.75994 1.62935 5.65635 1.60164 5.52635 1.60164C5.44815 1.60164 5.31815 1.63046 5.21456 1.7147L5.16277 1.77123C3.88817 2.70782 2.63996 3.8716 2.48347 4.23959L2.48349 4.23966Z" fill="#313131"/>
</svg>
