<svg width="259" height="306" viewBox="0 0 259 306" fill="none" xmlns="http://www.w3.org/2000/svg">
<g clip-path="url(#clip0_366_7195)">
<path d="M129.191 4.07927L254.289 74.0097V262.822H4.0937V74.0097L129.191 4.07927ZM129.191 0C128.501 0 127.811 0.174826 127.191 0.524478L2.09364 70.4549C0.801196 71.1775 0 72.5353 0 74.0155V262.822C0 265.077 1.83047 266.901 4.0937 266.901H254.289C256.552 266.901 258.383 265.077 258.383 262.822V74.0097C258.383 72.5353 257.582 71.1717 256.289 70.4491L131.197 0.524478C130.577 0.174826 129.887 0 129.197 0H129.191Z" fill="#CACACA"/>
<path d="M254.511 118.293H4.06443C2.93574 118.293 2.01758 117.378 2.01758 116.254C2.01758 115.129 2.93574 114.214 4.06443 114.214H254.511C255.64 114.214 256.558 115.129 256.558 116.254C256.558 117.378 255.64 118.293 254.511 118.293Z" fill="#CACACA"/>
<path d="M253.926 194.051H3.47947C2.35078 194.051 1.43262 193.136 1.43262 192.011C1.43262 190.887 2.35078 189.972 3.47947 189.972H253.926C255.055 189.972 255.973 190.887 255.973 192.011C255.973 193.136 255.055 194.051 253.926 194.051Z" fill="#CACACA"/>
</g>
<path d="M17.3804 291.624C17.3804 292.184 17.3964 293.112 18.0524 293.96C18.9644 295.128 20.7564 295.272 21.6364 295.272C24.5964 295.272 26.1964 293.72 26.1964 291.672C26.1964 291.192 26.1164 290.072 25.0444 289.368C24.3724 288.92 24.0684 288.856 21.3164 288.152C19.9084 287.816 19.2364 287.464 19.2364 286.44C19.2364 285.288 20.1964 284.568 21.7964 284.568C22.9324 284.568 24.1484 284.888 24.2284 286.328H25.8924C25.8604 285.848 25.8284 285.064 25.1884 284.36C24.2604 283.352 22.7084 283.224 21.9404 283.224C19.7644 283.224 17.5404 284.248 17.5404 286.6C17.5404 287.368 17.7964 288.232 18.7404 288.872C19.3324 289.272 20.1164 289.464 21.8764 289.896C23.4924 290.296 24.5324 290.552 24.5324 291.848C24.5324 292.424 24.2284 293.912 21.8284 293.912C19.1724 293.912 19.0764 292.424 19.0444 291.624H17.3804ZM27.3323 288.04H28.7563V293.4C28.7563 294.712 29.4123 295.112 30.7883 295.112C31.3323 295.112 31.7643 295.064 32.0363 295.016V293.848C31.9083 293.88 31.6203 293.928 31.3163 293.928C30.2443 293.928 30.2443 293.256 30.2443 292.856V288.04H32.0363V286.936H30.2443V284.776L28.7563 285.256V286.936H27.3323V288.04ZM33.9724 295H35.4924V290.728C35.4924 289.352 35.9084 288.296 37.6844 288.296C37.8604 288.296 38.0044 288.296 38.1164 288.312C38.2284 288.328 38.3244 288.344 38.4044 288.376V286.904C38.1484 286.888 37.8124 286.872 37.3644 286.936C36.6924 287.032 35.7324 287.4 35.4444 288.52L35.4124 286.968H33.8924C33.9404 287.496 33.9724 288.056 33.9724 288.6V295ZM46.3671 295C46.2551 294.184 46.2391 293.112 46.2391 292.984L46.3031 289.144C46.3031 288.776 46.2871 288.392 46.0311 287.912C45.5991 287.096 44.3511 286.728 43.1831 286.728C42.3351 286.728 41.1991 286.92 40.5911 287.592C40.1271 288.136 40.0791 288.696 40.0311 289.112H41.5351C41.5511 288.792 41.6311 287.752 43.1511 287.752C43.5831 287.752 44.2391 287.88 44.5431 288.28C44.8311 288.632 44.8311 289.064 44.8311 290.056C44.3671 290.024 44.1271 290.008 43.7431 290.008C43.1031 290.008 41.8231 290.056 40.9591 290.536C39.7751 291.224 39.5511 292.248 39.5511 292.888C39.5511 294.216 40.5431 295.256 42.3831 295.256C43.0551 295.256 44.1431 295.128 44.8631 293.8C44.8631 294.216 44.8951 294.6 45.0071 295H46.3671ZM44.8311 291.096C44.7991 292.216 44.7831 292.664 44.4471 293.208C44.0791 293.768 43.5031 294.072 42.7351 294.072C41.3911 294.072 41.0711 293.192 41.0711 292.68C41.0711 291.048 43.3591 291.048 43.9671 291.048C44.3351 291.048 44.5591 291.064 44.8311 291.096ZM49.0498 295H50.5538V290.376C50.5538 288.76 51.5618 287.976 52.6498 287.976C53.1618 287.976 53.6898 288.152 54.0738 288.52C54.4418 288.888 54.5058 289.368 54.5058 289.896V295H56.0417V289.544C56.0417 287.08 53.8498 286.808 53.1298 286.808C51.3058 286.808 50.7298 287.928 50.5538 288.264L50.5378 286.968H49.0338L49.0498 287.896V295ZM58.623 295.624C58.687 296.712 58.783 298.216 61.999 298.216C63.103 298.216 64.671 298.056 65.343 296.776C65.663 296.168 65.727 295.384 65.727 293.448L65.743 288.424L65.775 286.968H64.319L64.303 288.072C63.983 287.656 63.391 286.856 61.775 286.856C59.807 286.856 58.207 288.184 58.207 290.904C58.207 291.976 58.431 293.048 59.119 293.864C59.791 294.696 60.847 294.856 61.583 294.856C62.063 294.856 63.583 294.824 64.223 293.496C64.223 295.672 64.191 297.192 62.095 297.192C60.671 297.192 60.287 296.52 60.223 295.624H58.623ZM61.967 293.736C60.127 293.736 59.759 292.104 59.759 290.872C59.759 289.848 60.015 287.928 61.919 287.928C62.607 287.928 63.247 288.2 63.647 288.632C64.047 289.048 64.271 289.624 64.271 290.632C64.271 292.088 64.047 292.52 63.727 292.936C63.359 293.416 62.847 293.736 61.967 293.736ZM67.8443 292.616C67.8283 294.552 69.3483 295.224 70.9803 295.224C71.8123 295.224 72.6603 295.112 73.3643 294.68C73.9563 294.312 74.4523 293.544 74.4523 292.648C74.4523 292.136 74.2923 291.576 73.8443 291.16C73.3643 290.712 72.8843 290.584 70.6603 290.056C70.2443 289.944 69.5243 289.768 69.5243 289.032C69.5243 287.88 70.9323 287.88 71.1562 287.88C71.7003 287.88 72.7563 287.976 72.7083 289.192H74.2443C74.2443 288.856 74.2443 288.472 74.0363 288.024C73.5563 287.064 72.1483 286.776 71.1403 286.776C69.2843 286.776 68.0043 287.736 68.0043 289.208C68.0043 290.888 69.4123 291.224 71.0923 291.608C72.2923 291.88 72.8523 292.024 72.8523 292.808C72.8523 293.08 72.7563 293.352 72.5963 293.56C72.2763 293.96 71.8123 294.072 71.1883 294.072C69.7323 294.072 69.4123 293.224 69.4283 292.616H67.8443ZM82.6603 289.544C82.6283 289.096 82.5803 288.44 81.9883 287.752C81.2523 286.872 80.0523 286.76 79.5243 286.76C77.9243 286.76 75.8763 287.752 75.8763 291.096C75.8763 292.76 76.3563 293.608 76.8363 294.168C77.6843 295.096 78.9323 295.208 79.4763 295.208C81.4603 295.208 82.6283 293.896 82.7243 292.328H81.2043C81.1723 293.112 80.7403 294.072 79.4603 294.072C77.8603 294.072 77.4603 292.536 77.4603 290.888C77.4603 290.28 77.4603 287.864 79.5403 287.864C80.9963 287.864 81.1083 289.176 81.1403 289.544H82.6603ZM83.7674 295H85.2874V290.744C85.2874 290.248 85.2874 289.496 85.5434 289.048C85.7514 288.664 86.3114 287.976 87.4314 287.976C89.1594 287.976 89.1594 289.528 89.1594 290.248V295H90.6954V289.976C90.6954 288.808 90.5834 288.424 90.4234 288.104C89.9594 287.128 88.7434 286.824 87.8954 286.824C86.7754 286.824 85.7834 287.304 85.2874 288.152V283.464H83.7674V295ZM100.237 291.256C100.269 289.944 100.349 286.76 96.7486 286.76C96.2846 286.76 95.3246 286.808 94.5566 287.352C93.2926 288.232 92.9726 289.544 92.9726 291.128C92.9726 293.672 94.1726 295.24 96.7006 295.24C98.3166 295.24 99.1166 294.568 99.4686 294.168C100.045 293.544 100.109 292.888 100.157 292.488H98.6526C98.5246 293.64 97.7406 294.152 96.7646 294.152C95.1166 294.152 94.4286 292.92 94.4606 291.256H100.237ZM94.5246 290.2C94.5566 288.424 95.7406 287.832 96.7166 287.832C98.5726 287.832 98.7166 289.432 98.7006 290.2H94.5246ZM102.423 295H103.943V290.44C103.943 289.928 103.959 289.272 104.295 288.808C104.471 288.568 105.031 287.928 106.055 287.928C107.239 287.928 107.815 288.696 107.815 289.688V295H109.335V290.504C109.335 290.152 109.335 289.272 109.687 288.776C109.895 288.488 110.423 287.928 111.399 287.928C112.167 287.928 112.679 288.264 112.935 288.632C113.079 288.84 113.207 289.144 113.207 289.848V295H114.727V289.608C114.727 287.24 112.935 286.76 111.783 286.76C110.007 286.76 109.351 287.816 109.079 288.264C108.791 287.672 108.231 286.76 106.455 286.76C105.767 286.76 104.679 286.872 103.911 288.136V286.968H102.391L102.423 288.04V295ZM123.805 295C123.693 294.184 123.677 293.112 123.677 292.984L123.741 289.144C123.741 288.776 123.725 288.392 123.469 287.912C123.037 287.096 121.789 286.728 120.621 286.728C119.773 286.728 118.637 286.92 118.029 287.592C117.565 288.136 117.517 288.696 117.469 289.112H118.973C118.989 288.792 119.069 287.752 120.589 287.752C121.021 287.752 121.677 287.88 121.981 288.28C122.269 288.632 122.269 289.064 122.269 290.056C121.805 290.024 121.565 290.008 121.181 290.008C120.541 290.008 119.261 290.056 118.397 290.536C117.213 291.224 116.989 292.248 116.989 292.888C116.989 294.216 117.981 295.256 119.821 295.256C120.493 295.256 121.581 295.128 122.301 293.8C122.301 294.216 122.333 294.6 122.445 295H123.805ZM122.269 291.096C122.237 292.216 122.221 292.664 121.885 293.208C121.517 293.768 120.941 294.072 120.173 294.072C118.829 294.072 118.509 293.192 118.509 292.68C118.509 291.048 120.797 291.048 121.405 291.048C121.773 291.048 121.997 291.064 122.269 291.096ZM131.004 295H135.212C136.124 295 137.02 295 137.82 294.472C138.204 294.216 139.212 293.416 139.212 291.848C139.212 289.64 137.58 289.16 136.908 288.968C137.468 288.76 138.86 288.264 138.86 286.36C138.86 285.448 138.54 284.776 138.044 284.296C137.324 283.592 136.54 283.448 135.132 283.448H131.004V295ZM132.556 284.76H134.86C135.74 284.76 137.196 284.76 137.196 286.504C137.196 288.328 135.34 288.328 134.796 288.328H132.556V284.76ZM132.556 289.704H135.356C136.764 289.704 137.564 290.552 137.564 291.704C137.564 293.032 136.556 293.704 135.292 293.704H132.556V289.704ZM148.252 291.256C148.284 289.944 148.364 286.76 144.764 286.76C144.3 286.76 143.34 286.808 142.572 287.352C141.308 288.232 140.988 289.544 140.988 291.128C140.988 293.672 142.188 295.24 144.716 295.24C146.332 295.24 147.132 294.568 147.484 294.168C148.06 293.544 148.124 292.888 148.172 292.488H146.668C146.54 293.64 145.756 294.152 144.78 294.152C143.132 294.152 142.444 292.92 142.476 291.256H148.252ZM142.54 290.2C142.572 288.424 143.756 287.832 144.732 287.832C146.588 287.832 146.732 289.432 146.716 290.2H142.54ZM150.311 285.128H152.119V283.48H150.311V285.128ZM150.471 295H151.975V286.968H150.471V295ZM154.188 292.616C154.172 294.552 155.692 295.224 157.324 295.224C158.156 295.224 159.004 295.112 159.708 294.68C160.3 294.312 160.796 293.544 160.796 292.648C160.796 292.136 160.636 291.576 160.188 291.16C159.708 290.712 159.228 290.584 157.004 290.056C156.588 289.944 155.868 289.768 155.868 289.032C155.868 287.88 157.276 287.88 157.5 287.88C158.044 287.88 159.1 287.976 159.052 289.192H160.588C160.588 288.856 160.588 288.472 160.38 288.024C159.9 287.064 158.492 286.776 157.484 286.776C155.628 286.776 154.348 287.736 154.348 289.208C154.348 290.888 155.756 291.224 157.436 291.608C158.636 291.88 159.196 292.024 159.196 292.808C159.196 293.08 159.1 293.352 158.94 293.56C158.62 293.96 158.156 294.072 157.532 294.072C156.076 294.072 155.756 293.224 155.772 292.616H154.188ZM162.86 298.088H164.348V294.104C164.78 294.808 165.644 295.304 166.812 295.304C168.732 295.304 170.476 293.992 170.476 291C170.476 288.024 168.828 286.84 167.1 286.84C166.444 286.84 165.116 287.032 164.364 288.296L164.332 286.968H162.812C162.844 287.736 162.86 287.928 162.86 288.28V298.088ZM164.3 291.224C164.3 290.504 164.3 287.96 166.7 287.96C168.476 287.96 168.908 289.464 168.908 290.904C168.908 291.48 168.828 292.632 168.252 293.416C167.74 294.12 166.94 294.2 166.556 294.2C164.444 294.2 164.3 292.2 164.3 291.224ZM172.545 285.128H174.353V283.48H172.545V285.128ZM172.705 295H174.209V286.968H172.705V295ZM183.83 291.256C183.862 289.944 183.942 286.76 180.342 286.76C179.878 286.76 178.918 286.808 178.15 287.352C176.886 288.232 176.566 289.544 176.566 291.128C176.566 293.672 177.766 295.24 180.294 295.24C181.91 295.24 182.71 294.568 183.062 294.168C183.638 293.544 183.702 292.888 183.75 292.488H182.246C182.118 293.64 181.334 294.152 180.358 294.152C178.71 294.152 178.022 292.92 178.054 291.256H183.83ZM178.118 290.2C178.15 288.424 179.334 287.832 180.31 287.832C182.166 287.832 182.31 289.432 182.294 290.2H178.118ZM186.065 295H187.569V283.464H186.065V295ZM196.742 295C196.63 294.184 196.614 293.112 196.614 292.984L196.678 289.144C196.678 288.776 196.662 288.392 196.406 287.912C195.974 287.096 194.726 286.728 193.558 286.728C192.71 286.728 191.574 286.92 190.966 287.592C190.502 288.136 190.454 288.696 190.406 289.112H191.91C191.926 288.792 192.006 287.752 193.526 287.752C193.958 287.752 194.614 287.88 194.918 288.28C195.206 288.632 195.206 289.064 195.206 290.056C194.742 290.024 194.502 290.008 194.118 290.008C193.478 290.008 192.198 290.056 191.334 290.536C190.15 291.224 189.926 292.248 189.926 292.888C189.926 294.216 190.918 295.256 192.758 295.256C193.43 295.256 194.518 295.128 195.238 293.8C195.238 294.216 195.27 294.6 195.382 295H196.742ZM195.206 291.096C195.174 292.216 195.158 292.664 194.822 293.208C194.454 293.768 193.878 294.072 193.11 294.072C191.766 294.072 191.446 293.192 191.446 292.68C191.446 291.048 193.734 291.048 194.342 291.048C194.71 291.048 194.934 291.064 195.206 291.096ZM199.425 295H200.929V290.376C200.929 288.76 201.937 287.976 203.025 287.976C203.537 287.976 204.065 288.152 204.449 288.52C204.817 288.888 204.881 289.368 204.881 289.896V295H206.417V289.544C206.417 287.08 204.225 286.808 203.505 286.808C201.681 286.808 201.105 287.928 200.929 288.264L200.913 286.968H199.409L199.425 287.896V295ZM208.438 292.616C208.422 294.552 209.942 295.224 211.574 295.224C212.406 295.224 213.254 295.112 213.958 294.68C214.55 294.312 215.046 293.544 215.046 292.648C215.046 292.136 214.886 291.576 214.438 291.16C213.958 290.712 213.478 290.584 211.254 290.056C210.838 289.944 210.118 289.768 210.118 289.032C210.118 287.88 211.526 287.88 211.75 287.88C212.294 287.88 213.35 287.976 213.302 289.192H214.838C214.838 288.856 214.838 288.472 214.63 288.024C214.15 287.064 212.742 286.776 211.734 286.776C209.878 286.776 208.598 287.736 208.598 289.208C208.598 290.888 210.006 291.224 211.686 291.608C212.886 291.88 213.446 292.024 213.446 292.808C213.446 293.08 213.35 293.352 213.19 293.56C212.87 293.96 212.406 294.072 211.782 294.072C210.326 294.072 210.006 293.224 210.022 292.616H208.438ZM217.014 285.128H218.822V283.48H217.014V285.128ZM217.174 295H218.678V286.968H217.174V295ZM227.707 289.544C227.675 289.096 227.627 288.44 227.035 287.752C226.299 286.872 225.099 286.76 224.571 286.76C222.971 286.76 220.923 287.752 220.923 291.096C220.923 292.76 221.403 293.608 221.883 294.168C222.731 295.096 223.979 295.208 224.523 295.208C226.507 295.208 227.675 293.896 227.771 292.328H226.251C226.219 293.112 225.787 294.072 224.507 294.072C222.907 294.072 222.507 292.536 222.507 290.888C222.507 290.28 222.507 287.864 224.587 287.864C226.043 287.864 226.155 289.176 226.187 289.544H227.707ZM228.814 295H230.334V290.744C230.334 290.248 230.334 289.496 230.59 289.048C230.798 288.664 231.358 287.976 232.478 287.976C234.206 287.976 234.206 289.528 234.206 290.248V295H235.742V289.976C235.742 288.808 235.63 288.424 235.47 288.104C235.006 287.128 233.79 286.824 232.942 286.824C231.822 286.824 230.83 287.304 230.334 288.152V283.464H228.814V295ZM237.364 288.04H238.788V293.4C238.788 294.712 239.444 295.112 240.82 295.112C241.364 295.112 241.796 295.064 242.068 295.016V293.848C241.94 293.88 241.652 293.928 241.348 293.928C240.276 293.928 240.276 293.256 240.276 292.856V288.04H242.068V286.936H240.276V284.776L238.788 285.256V286.936H237.364V288.04Z" fill="#0F172A"/>
<path d="M46.791 88.4923V66.3477H104.103V202.129H145.04" stroke="#FF0000" stroke-width="2" stroke-miterlimit="10"/>
<path d="M64.3359 66.3477V87.9095" stroke="#FF0000" stroke-width="2" stroke-miterlimit="10"/>
<path d="M83.6113 66.0796V87.9095" stroke="#FF0000" stroke-width="2" stroke-miterlimit="10"/>
<path d="M207.5 66.3477H166.771V202.129H125.834" stroke="#FF0000" stroke-width="2" stroke-miterlimit="10"/>
<path d="M206.538 66.3477V87.9095" stroke="#FF0000" stroke-width="2" stroke-miterlimit="10"/>
<path d="M133.98 201.873V210.288" stroke="#FF0000" stroke-width="2" stroke-miterlimit="10"/>
<path d="M159.66 210.288H111.12C107.245 210.288 104.103 213.418 104.103 217.281V251.663C104.103 255.525 107.245 258.656 111.12 258.656H159.66C163.536 258.656 166.678 255.525 166.678 251.663V217.281C166.678 213.418 163.536 210.288 159.66 210.288Z" fill="#CDE8ED"/>
<path d="M47.4453 156.925V134.78H104.757" stroke="#FF0000" stroke-width="2" stroke-miterlimit="10"/>
<path d="M64.9902 134.78V156.342" stroke="#FF0000" stroke-width="2" stroke-miterlimit="10"/>
<path d="M84.2656 134.512V156.342" stroke="#FF0000" stroke-width="2" stroke-miterlimit="10"/>
<path d="M206 135.003L166.455 135.072" stroke="#FF0000" stroke-width="2" stroke-miterlimit="10"/>
<path d="M206.223 134V156.634" stroke="#FF0000" stroke-width="2" stroke-miterlimit="10"/>
<path d="M150.453 243.977C149.963 243.615 149.523 243.188 149.144 242.71C148.222 241.64 147.177 240.448 145.087 240.448C142.995 240.448 141.95 241.64 141.028 242.71C140.192 243.668 139.533 244.423 138.169 244.423C136.806 244.423 136.143 243.668 135.307 242.71C134.385 241.64 133.34 240.448 131.248 240.448C129.157 240.448 128.112 241.64 127.189 242.71C126.359 243.668 125.699 244.423 124.332 244.423C122.964 244.423 122.309 243.668 121.474 242.71C120.902 241.959 120.18 241.334 119.356 240.876C118.964 240.699 118.502 240.865 118.312 241.251C118.124 241.637 118.275 242.103 118.655 242.305C119.286 242.674 119.835 243.167 120.273 243.75C121.2 244.82 122.245 246.013 124.332 246.013C126.419 246.013 127.469 244.82 128.391 243.75C129.225 242.792 129.885 242.038 131.248 242.038C132.612 242.038 133.272 242.792 134.107 243.75C135.029 244.82 136.074 246.013 138.169 246.013C140.264 246.013 141.306 244.82 142.228 243.75C143.059 242.792 143.719 242.038 145.087 242.038C146.455 242.038 147.115 242.792 147.946 243.75H147.944C148.415 244.342 148.964 244.865 149.578 245.305C149.755 245.426 149.97 245.469 150.18 245.429C150.39 245.387 150.573 245.264 150.691 245.086C150.807 244.907 150.848 244.69 150.804 244.482C150.759 244.274 150.632 244.092 150.453 243.977L150.453 243.977Z" fill="#009BB4"/>
<path d="M150.453 238.014C149.963 237.653 149.523 237.226 149.144 236.747C148.222 235.677 147.177 234.485 145.087 234.485C142.995 234.485 141.95 235.677 141.028 236.747C140.192 237.705 139.533 238.46 138.166 238.46C136.798 238.46 136.143 237.705 135.307 236.747C134.385 235.677 133.34 234.485 131.248 234.485C129.157 234.485 128.112 235.677 127.189 236.747C126.359 237.705 125.699 238.46 124.332 238.46C122.964 238.46 122.309 237.705 121.474 236.747C120.902 235.996 120.18 235.372 119.356 234.913C118.964 234.736 118.502 234.903 118.312 235.288C118.124 235.674 118.275 236.14 118.655 236.342C119.286 236.712 119.835 237.204 120.273 237.788C121.2 238.857 122.245 240.05 124.332 240.05C126.419 240.05 127.469 238.857 128.391 237.788C129.225 236.83 129.882 236.075 131.248 236.075C132.616 236.075 133.276 236.83 134.107 237.788C135.029 238.857 136.074 240.05 138.166 240.05C140.258 240.05 141.303 238.857 142.225 237.788C143.059 236.83 143.719 236.075 145.087 236.075C146.455 236.075 147.115 236.83 147.946 237.788H147.944C148.414 238.379 148.964 238.903 149.578 239.342C149.755 239.463 149.97 239.507 150.18 239.466C150.39 239.424 150.573 239.302 150.691 239.123C150.807 238.944 150.848 238.727 150.804 238.519C150.759 238.311 150.632 238.129 150.453 238.014L150.453 238.014Z" fill="#009BB4"/>
<path d="M150.453 231.654C149.963 231.293 149.523 230.866 149.144 230.387C148.222 229.318 147.177 228.125 145.087 228.125C142.995 228.125 141.95 229.318 141.028 230.387C140.192 231.345 139.533 232.1 138.169 232.1C136.806 232.1 136.143 231.345 135.307 230.387C134.385 229.318 133.34 228.125 131.248 228.125C129.157 228.125 128.112 229.318 127.189 230.387C126.359 231.345 125.699 232.1 124.332 232.1C122.964 232.1 122.309 231.345 121.474 230.387C120.902 229.636 120.18 229.012 119.356 228.554C118.964 228.377 118.502 228.543 118.312 228.928C118.124 229.314 118.275 229.78 118.655 229.982C119.286 230.352 119.835 230.844 120.273 231.428C121.2 232.498 122.245 233.69 124.332 233.69C126.419 233.69 127.469 232.498 128.391 231.428C129.225 230.47 129.885 229.715 131.248 229.715C132.612 229.715 133.272 230.47 134.107 231.428C135.029 232.498 136.074 233.69 138.169 233.69C140.264 233.69 141.306 232.498 142.228 231.428C143.059 230.47 143.719 229.715 145.087 229.715C146.455 229.715 147.115 230.47 147.946 231.428H147.944C148.415 232.019 148.964 232.543 149.578 232.982C149.755 233.103 149.97 233.147 150.18 233.106C150.39 233.064 150.573 232.942 150.691 232.763C150.807 232.585 150.848 232.367 150.804 232.159C150.759 231.951 150.632 231.769 150.453 231.654L150.453 231.654Z" fill="#009BB4"/>
<path d="M150.453 225.692C149.963 225.33 149.523 224.903 149.144 224.425C148.222 223.355 147.177 222.162 145.087 222.162C142.995 222.162 141.95 223.355 141.028 224.425C140.192 225.383 139.533 226.137 138.166 226.137C136.798 226.137 136.143 225.383 135.307 224.425C134.385 223.355 133.34 222.162 131.248 222.162C129.157 222.162 128.112 223.355 127.189 224.425C126.359 225.383 125.699 226.137 124.332 226.137C122.964 226.137 122.309 225.383 121.474 224.425C120.902 223.673 120.18 223.049 119.356 222.591C118.964 222.414 118.502 222.58 118.312 222.965C118.124 223.352 118.275 223.817 118.655 224.019C119.286 224.389 119.835 224.881 120.273 225.465C121.2 226.535 122.245 227.727 124.332 227.727C126.419 227.727 127.469 226.535 128.391 225.465C129.225 224.507 129.882 223.752 131.248 223.752C132.616 223.752 133.276 224.507 134.107 225.465C135.029 226.535 136.074 227.727 138.166 227.727C140.258 227.727 141.303 226.535 142.225 225.465C143.059 224.507 143.719 223.752 145.087 223.752C146.455 223.752 147.115 224.507 147.946 225.465H147.944C148.414 226.056 148.964 226.58 149.578 227.019C149.755 227.14 149.97 227.184 150.18 227.143C150.39 227.101 150.573 226.979 150.691 226.8C150.807 226.622 150.848 226.404 150.804 226.196C150.759 225.988 150.632 225.806 150.453 225.692L150.453 225.692Z" fill="#009BB4"/>
<g clip-path="url(#clip1_366_7195)">
<path d="M58.5605 100.847C58.5605 101.045 58.7226 101.207 58.9212 101.207H71.112C71.3106 101.207 71.4726 101.045 71.4726 100.847C71.4726 98.9172 70.1202 97.2399 68.2267 96.825V96.1938C68.2267 94.8956 67.1806 93.8495 65.8824 93.8495H65.3773V91.7573H64.656V93.8495H64.1692C62.871 93.8495 61.8249 94.8956 61.8249 96.1938V96.825C59.9314 97.2216 58.5605 98.8988 58.5605 100.847ZM62.5462 96.1938C62.5462 95.2922 63.2676 94.5709 64.1692 94.5709H65.8824C66.784 94.5709 67.5053 95.2922 67.5053 96.1938V96.7348H62.5462V96.1938ZM62.6723 97.4562H67.3793C69.1108 97.4562 70.5535 98.7727 70.7339 100.486H59.3005C59.4808 98.7728 60.9233 97.4562 62.6723 97.4562Z" fill="#009BB4"/>
<line x1="0.375691" y1="-0.375691" x2="6.91156" y2="-0.375691" transform="matrix(-0.315909 0.94879 -0.957957 -0.286913 61.6328 101.743)" stroke="#009BB4" stroke-width="0.751381" stroke-linecap="round" stroke-dasharray="0.75 1.5"/>
<line x1="0.375691" y1="-0.375691" x2="6.88014" y2="-0.375691" transform="matrix(-0.119559 0.992827 -0.994184 -0.107693 63.0566 101.743)" stroke="#009BB4" stroke-width="0.751381" stroke-linecap="round" stroke-dasharray="0.75 1.5"/>
<line x1="0.375691" y1="-0.375691" x2="6.95632" y2="-0.375691" transform="matrix(0.332802 0.942997 0.96232 -0.271919 68.1299 101.743)" stroke="#009BB4" stroke-width="0.751381" stroke-linecap="round" stroke-dasharray="0.75 1.5"/>
<line x1="0.375691" y1="-0.375691" x2="6.88654" y2="-0.375691" transform="matrix(0.126614 0.991952 0.994819 -0.101667 66.6211 101.743)" stroke="#009BB4" stroke-width="0.751381" stroke-linecap="round" stroke-dasharray="0.75 1.5"/>
<line x1="0.375691" y1="-0.375691" x2="6.91446" y2="-0.375691" transform="matrix(-0.00748677 0.999972 -0.999977 -0.00673456 64.5684 101.743)" stroke="#009BB4" stroke-width="0.751381" stroke-linecap="round" stroke-dasharray="0.75 1.5"/>
</g>
<g clip-path="url(#clip2_366_7195)">
<path d="M58.5605 172.847C58.5605 173.045 58.7226 173.207 58.9212 173.207H71.112C71.3106 173.207 71.4726 173.045 71.4726 172.847C71.4726 170.917 70.1202 169.24 68.2267 168.825V168.194C68.2267 166.896 67.1806 165.85 65.8824 165.85H65.3773V163.757H64.656V165.85H64.1692C62.871 165.85 61.8249 166.896 61.8249 168.194V168.825C59.9314 169.222 58.5605 170.899 58.5605 172.847ZM62.5462 168.194C62.5462 167.292 63.2676 166.571 64.1692 166.571H65.8824C66.784 166.571 67.5053 167.292 67.5053 168.194V168.735H62.5462V168.194ZM62.6723 169.456H67.3793C69.1108 169.456 70.5535 170.773 70.7339 172.486H59.3005C59.4808 170.773 60.9233 169.456 62.6723 169.456Z" fill="#009BB4"/>
<line x1="0.375691" y1="-0.375691" x2="6.91156" y2="-0.375691" transform="matrix(-0.315909 0.94879 -0.957957 -0.286913 61.6328 173.743)" stroke="#009BB4" stroke-width="0.751381" stroke-linecap="round" stroke-dasharray="0.75 1.5"/>
<line x1="0.375691" y1="-0.375691" x2="6.88014" y2="-0.375691" transform="matrix(-0.119559 0.992827 -0.994184 -0.107693 63.0566 173.743)" stroke="#009BB4" stroke-width="0.751381" stroke-linecap="round" stroke-dasharray="0.75 1.5"/>
<line x1="0.375691" y1="-0.375691" x2="6.95632" y2="-0.375691" transform="matrix(0.332802 0.942997 0.96232 -0.271919 68.1299 173.743)" stroke="#009BB4" stroke-width="0.751381" stroke-linecap="round" stroke-dasharray="0.75 1.5"/>
<line x1="0.375691" y1="-0.375691" x2="6.88654" y2="-0.375691" transform="matrix(0.126614 0.991952 0.994819 -0.101667 66.6211 173.743)" stroke="#009BB4" stroke-width="0.751381" stroke-linecap="round" stroke-dasharray="0.75 1.5"/>
<line x1="0.375691" y1="-0.375691" x2="6.91446" y2="-0.375691" transform="matrix(-0.00748677 0.999972 -0.999977 -0.00673456 64.5684 173.743)" stroke="#009BB4" stroke-width="0.751381" stroke-linecap="round" stroke-dasharray="0.75 1.5"/>
</g>
<path d="M90.5715 98.5892C90.5715 98.4974 90.535 98.4096 90.4702 98.3448C90.4054 98.28 90.317 98.2436 90.2258 98.2436H83.9776V93.7159C84.0485 93.1448 84.5339 92.7155 85.1097 92.7155C85.6848 92.7155 86.1709 93.1448 86.2411 93.7159V94.4761H86.9324V93.7159C86.8412 92.7776 86.0521 92.062 85.1097 92.062C84.1666 92.062 83.3775 92.7776 83.2863 93.7159V98.2436H77.0566C76.8662 98.2436 76.7109 98.3982 76.7109 98.5892V99.6261C76.7116 100.666 77.1031 101.667 77.8073 102.432C78.5114 103.197 79.4774 103.67 80.5129 103.757C80.6803 104.705 81.5032 105.397 82.4659 105.399H84.8166C85.7792 105.397 86.6021 104.705 86.7696 103.757C87.8051 103.67 88.7712 103.197 89.4752 102.432C90.1793 101.667 90.5708 100.666 90.5715 99.6261L90.5715 98.5892ZM84.8165 104.707H82.4658C81.89 104.707 81.383 104.327 81.2217 103.774H86.0606C85.8992 104.327 85.3923 104.707 84.8165 104.707ZM89.8802 99.6261C89.8802 100.543 89.5157 101.422 88.8676 102.071C88.2195 102.719 87.3406 103.083 86.4238 103.083H80.8586C79.9418 103.083 79.0628 102.719 78.4147 102.071C77.7667 101.422 77.4021 100.543 77.4021 99.6261V98.9349H89.8801L89.8802 99.6261Z" fill="#009BB4"/>
<path d="M90.5715 170.589C90.5715 170.497 90.535 170.41 90.4702 170.345C90.4054 170.28 90.317 170.244 90.2258 170.244H83.9776V165.716C84.0485 165.145 84.5339 164.715 85.1097 164.715C85.6848 164.715 86.1709 165.145 86.2411 165.716V166.476H86.9324V165.716C86.8412 164.778 86.0521 164.062 85.1097 164.062C84.1666 164.062 83.3775 164.778 83.2863 165.716V170.244H77.0566C76.8662 170.244 76.7109 170.398 76.7109 170.589V171.626C76.7116 172.666 77.1031 173.667 77.8073 174.432C78.5114 175.197 79.4774 175.67 80.5129 175.757C80.6803 176.705 81.5032 177.397 82.4659 177.399H84.8166C85.7792 177.397 86.6021 176.705 86.7696 175.757C87.8051 175.67 88.7712 175.197 89.4752 174.432C90.1793 173.667 90.5708 172.666 90.5715 171.626L90.5715 170.589ZM84.8165 176.707H82.4658C81.89 176.707 81.383 176.327 81.2217 175.774H86.0606C85.8992 176.327 85.3923 176.707 84.8165 176.707ZM89.8802 171.626C89.8802 172.543 89.5157 173.422 88.8676 174.071C88.2195 174.719 87.3406 175.083 86.4238 175.083H80.8586C79.9418 175.083 79.0628 174.719 78.4147 174.071C77.7667 173.422 77.4021 172.543 77.4021 171.626V170.935H89.8801L89.8802 171.626Z" fill="#009BB4"/>
<path d="M52.8002 97.9724H38.8464V94.0786C38.8464 93.3765 39.4179 92.805 40.12 92.805C40.8222 92.805 41.3936 93.3765 41.3936 94.0786C41.3936 94.2608 41.5415 94.4086 41.7236 94.4086C41.9058 94.4086 42.0536 94.2608 42.0536 94.0786C42.0536 93.0121 41.1865 92.145 40.12 92.145C39.0535 92.145 38.1864 93.0121 38.1864 94.0786V97.9715H36.4144L35.2001 97.9724C35.0179 97.9724 34.8701 98.1202 34.8701 98.3024C34.8701 98.4846 35.0179 98.6324 35.2001 98.6324H36.0844V102.33C36.0844 103.236 36.8218 103.974 37.7284 103.974H38.1864V105.526C38.1864 105.708 38.3343 105.856 38.5164 105.856C38.6986 105.856 38.8464 105.708 38.8464 105.526V103.974H49.1539V105.526C49.1539 105.708 49.3017 105.856 49.4839 105.856C49.6661 105.856 49.8139 105.708 49.8139 105.526V103.974H50.2719C51.1777 103.974 51.9159 103.237 51.9159 102.33V98.6324H52.8002C52.9824 98.6324 53.1302 98.4846 53.1302 98.3024C53.1302 98.1193 52.9824 97.9724 52.8002 97.9724L52.8002 97.9724ZM51.2559 102.33C51.2559 102.873 50.815 103.314 50.2719 103.314H37.7284C37.1861 103.314 36.7444 102.874 36.7444 102.33V98.6324H51.2549V102.33H51.2559Z" fill="#009BB4"/>
<path d="M52.8002 169.972H38.8464V166.079C38.8464 165.377 39.4179 164.805 40.12 164.805C40.8222 164.805 41.3936 165.377 41.3936 166.079C41.3936 166.261 41.5415 166.409 41.7236 166.409C41.9058 166.409 42.0536 166.261 42.0536 166.079C42.0536 165.012 41.1865 164.145 40.12 164.145C39.0535 164.145 38.1864 165.012 38.1864 166.079V169.972H36.4144L35.2001 169.972C35.0179 169.972 34.8701 170.12 34.8701 170.302C34.8701 170.485 35.0179 170.632 35.2001 170.632H36.0844V174.33C36.0844 175.236 36.8218 175.974 37.7284 175.974H38.1864V177.526C38.1864 177.708 38.3343 177.856 38.5164 177.856C38.6986 177.856 38.8464 177.708 38.8464 177.526V175.974H49.1539V177.526C49.1539 177.708 49.3017 177.856 49.4839 177.856C49.6661 177.856 49.8139 177.708 49.8139 177.526V175.974H50.2719C51.1777 175.974 51.9159 175.237 51.9159 174.33V170.632H52.8002C52.9824 170.632 53.1302 170.485 53.1302 170.302C53.1302 170.119 52.9824 169.972 52.8002 169.972L52.8002 169.972ZM51.2559 174.33C51.2559 174.873 50.815 175.314 50.2719 175.314H37.7284C37.1861 175.314 36.7444 174.874 36.7444 174.33V170.632H51.2549V174.33H51.2559Z" fill="#009BB4"/>
<path d="M58.392 61H61.548C62.232 61 62.904 61 63.504 60.604C63.792 60.412 64.548 59.812 64.548 58.636C64.548 56.98 63.324 56.62 62.82 56.476C63.24 56.32 64.284 55.948 64.284 54.52C64.284 53.836 64.044 53.332 63.672 52.972C63.132 52.444 62.544 52.336 61.488 52.336H58.392V61ZM59.556 53.32H61.284C61.944 53.32 63.036 53.32 63.036 54.628C63.036 55.996 61.644 55.996 61.236 55.996H59.556V53.32ZM59.556 57.028H61.656C62.712 57.028 63.312 57.664 63.312 58.528C63.312 59.524 62.556 60.028 61.608 60.028H59.556V57.028ZM71.0039 61C70.9199 60.388 70.9079 59.584 70.9079 59.488L70.9559 56.608C70.9559 56.332 70.9439 56.044 70.7519 55.684C70.4279 55.072 69.4919 54.796 68.6159 54.796C67.9799 54.796 67.1279 54.94 66.6719 55.444C66.3239 55.852 66.2879 56.272 66.2519 56.584H67.3799C67.3919 56.344 67.4519 55.564 68.5919 55.564C68.9159 55.564 69.4079 55.66 69.6359 55.96C69.8519 56.224 69.8519 56.548 69.8519 57.292C69.5039 57.268 69.3239 57.256 69.0359 57.256C68.5559 57.256 67.5959 57.292 66.9479 57.652C66.0599 58.168 65.8919 58.936 65.8919 59.416C65.8919 60.412 66.6359 61.192 68.0159 61.192C68.5199 61.192 69.3359 61.096 69.8759 60.1C69.8759 60.412 69.8999 60.7 69.9839 61H71.0039ZM69.8519 58.072C69.8279 58.912 69.8159 59.248 69.5639 59.656C69.2879 60.076 68.8559 60.304 68.2799 60.304C67.2719 60.304 67.0319 59.644 67.0319 59.26C67.0319 58.036 68.7479 58.036 69.2039 58.036C69.4799 58.036 69.6479 58.048 69.8519 58.072ZM77.1558 55.792C77.0118 55.54 76.5798 54.772 75.2838 54.772C73.8678 54.772 72.5598 55.768 72.5598 58.06C72.5598 60.7 74.3478 61.12 75.1518 61.12C75.5598 61.12 76.1478 61.012 76.6398 60.676C76.9518 60.46 77.0838 60.208 77.1798 60.04L77.2038 61H78.3318C78.3078 60.688 78.2838 60.172 78.2838 60.04V52.348H77.1558V55.792ZM77.1918 57.904C77.1918 58.372 77.1918 60.328 75.4158 60.328C74.0358 60.328 73.7598 59.092 73.7598 58.024C73.7598 57.616 73.7598 55.612 75.4158 55.612C76.0518 55.612 76.4958 55.912 76.7358 56.224C76.9878 56.548 77.1918 57.028 77.1918 57.904ZM79.1518 61.192H79.9438L82.7398 52.444H81.9598L79.1518 61.192ZM84.8401 52.336L87.3001 61H88.5961L90.7441 53.596L92.7481 61H94.0801L96.6481 52.336H95.4721L93.5041 59.524L91.5481 52.336H90.0601L87.9961 59.464L86.1241 52.336H84.8401ZM104.304 54.676C104.148 52.708 102.42 52.216 101.196 52.216C98.1121 52.216 97.4041 54.94 97.4041 56.764C97.4041 58.444 97.9921 61.132 101.04 61.132C102.528 61.132 104.1 60.424 104.28 58.72H102.96C102.924 58.924 102.852 59.296 102.54 59.632C102.168 60.016 101.664 60.148 101.136 60.148C99.1561 60.148 98.6881 58.384 98.6881 56.752C98.6881 55.312 99.0601 53.176 101.148 53.176C102.816 53.176 102.972 54.376 103.02 54.676H104.304Z" fill="#9AD4DF"/>
<path d="M173.86 60H175.048V55.404L179.044 60H180.724L176.428 55.212L180.304 51.336H178.66L175.048 55.128V51.336H173.86V60ZM181.45 53.976V58.02C181.45 59.208 182.146 60.06 183.634 60.06C184.93 60.06 185.338 59.388 185.554 58.968L185.578 60H186.754C186.742 59.664 186.718 58.992 186.718 58.872V53.976H185.554V57.384C185.554 57.684 185.554 58.152 185.302 58.512C184.978 58.992 184.45 59.184 183.886 59.184C182.734 59.184 182.602 58.44 182.602 57.852V53.976H181.45ZM182.482 52.596H183.586V51.372H182.482V52.596ZM184.75 52.596H185.866V51.372H184.75V52.596ZM193.478 55.908C193.454 55.572 193.418 55.08 192.974 54.564C192.422 53.904 191.522 53.82 191.126 53.82C189.926 53.82 188.39 54.564 188.39 57.072C188.39 58.32 188.75 58.956 189.11 59.376C189.746 60.072 190.682 60.156 191.09 60.156C192.578 60.156 193.454 59.172 193.526 57.996H192.386C192.362 58.584 192.038 59.304 191.078 59.304C189.878 59.304 189.578 58.152 189.578 56.916C189.578 56.46 189.578 54.648 191.138 54.648C192.23 54.648 192.314 55.632 192.338 55.908H193.478ZM194.308 60H195.448V56.808C195.448 56.436 195.448 55.872 195.64 55.536C195.796 55.248 196.216 54.732 197.056 54.732C198.352 54.732 198.352 55.896 198.352 56.436V60H199.504V56.232C199.504 55.356 199.42 55.068 199.3 54.828C198.952 54.096 198.04 53.868 197.404 53.868C196.564 53.868 195.82 54.228 195.448 54.864V51.348H194.308V60ZM206.66 57.192C206.684 56.208 206.744 53.82 204.044 53.82C203.696 53.82 202.976 53.856 202.4 54.264C201.452 54.924 201.212 55.908 201.212 57.096C201.212 59.004 202.112 60.18 204.008 60.18C205.22 60.18 205.82 59.676 206.084 59.376C206.516 58.908 206.564 58.416 206.6 58.116H205.472C205.376 58.98 204.788 59.364 204.056 59.364C202.82 59.364 202.304 58.44 202.328 57.192H206.66ZM202.376 56.4C202.4 55.068 203.288 54.624 204.02 54.624C205.412 54.624 205.52 55.824 205.508 56.4H202.376Z" fill="#9AD4DF"/>
<path d="M174.86 131H176.048V126.404L180.044 131H181.724L177.428 126.212L181.304 122.336H179.66L176.048 126.128V122.336H174.86V131ZM182.45 124.976V129.02C182.45 130.208 183.146 131.06 184.634 131.06C185.93 131.06 186.338 130.388 186.554 129.968L186.578 131H187.754C187.742 130.664 187.718 129.992 187.718 129.872V124.976H186.554V128.384C186.554 128.684 186.554 129.152 186.302 129.512C185.978 129.992 185.45 130.184 184.886 130.184C183.734 130.184 183.602 129.44 183.602 128.852V124.976H182.45ZM183.482 123.596H184.586V122.372H183.482V123.596ZM185.75 123.596H186.866V122.372H185.75V123.596ZM194.478 126.908C194.454 126.572 194.418 126.08 193.974 125.564C193.422 124.904 192.522 124.82 192.126 124.82C190.926 124.82 189.39 125.564 189.39 128.072C189.39 129.32 189.75 129.956 190.11 130.376C190.746 131.072 191.682 131.156 192.09 131.156C193.578 131.156 194.454 130.172 194.526 128.996H193.386C193.362 129.584 193.038 130.304 192.078 130.304C190.878 130.304 190.578 129.152 190.578 127.916C190.578 127.46 190.578 125.648 192.138 125.648C193.23 125.648 193.314 126.632 193.338 126.908H194.478ZM195.308 131H196.448V127.808C196.448 127.436 196.448 126.872 196.64 126.536C196.796 126.248 197.216 125.732 198.056 125.732C199.352 125.732 199.352 126.896 199.352 127.436V131H200.504V127.232C200.504 126.356 200.42 126.068 200.3 125.828C199.952 125.096 199.04 124.868 198.404 124.868C197.564 124.868 196.82 125.228 196.448 125.864V122.348H195.308V131ZM207.66 128.192C207.684 127.208 207.744 124.82 205.044 124.82C204.696 124.82 203.976 124.856 203.4 125.264C202.452 125.924 202.212 126.908 202.212 128.096C202.212 130.004 203.112 131.18 205.008 131.18C206.22 131.18 206.82 130.676 207.084 130.376C207.516 129.908 207.564 129.416 207.6 129.116H206.472C206.376 129.98 205.788 130.364 205.056 130.364C203.82 130.364 203.304 129.44 203.328 128.192H207.66ZM203.376 127.4C203.4 126.068 204.288 125.624 205.02 125.624C206.412 125.624 206.52 126.824 206.508 127.4H203.376Z" fill="#9AD4DF"/>
<path d="M48.392 130H51.548C52.232 130 52.904 130 53.504 129.604C53.792 129.412 54.548 128.812 54.548 127.636C54.548 125.98 53.324 125.62 52.82 125.476C53.24 125.32 54.284 124.948 54.284 123.52C54.284 122.836 54.044 122.332 53.672 121.972C53.132 121.444 52.544 121.336 51.488 121.336H48.392V130ZM49.556 122.32H51.284C51.944 122.32 53.036 122.32 53.036 123.628C53.036 124.996 51.644 124.996 51.236 124.996H49.556V122.32ZM49.556 126.028H51.656C52.712 126.028 53.312 126.664 53.312 127.528C53.312 128.524 52.556 129.028 51.608 129.028H49.556V126.028ZM61.0039 130C60.9199 129.388 60.9079 128.584 60.9079 128.488L60.9559 125.608C60.9559 125.332 60.9439 125.044 60.7519 124.684C60.4279 124.072 59.4919 123.796 58.6159 123.796C57.9799 123.796 57.1279 123.94 56.6719 124.444C56.3239 124.852 56.2879 125.272 56.2519 125.584H57.3799C57.3919 125.344 57.4519 124.564 58.5919 124.564C58.9159 124.564 59.4079 124.66 59.6359 124.96C59.8519 125.224 59.8519 125.548 59.8519 126.292C59.5039 126.268 59.3239 126.256 59.0359 126.256C58.5559 126.256 57.5959 126.292 56.9479 126.652C56.0599 127.168 55.8919 127.936 55.8919 128.416C55.8919 129.412 56.6359 130.192 58.0159 130.192C58.5199 130.192 59.3359 130.096 59.8759 129.1C59.8759 129.412 59.8999 129.7 59.9839 130H61.0039ZM59.8519 127.072C59.8279 127.912 59.8159 128.248 59.5639 128.656C59.2879 129.076 58.8559 129.304 58.2799 129.304C57.2719 129.304 57.0319 128.644 57.0319 128.26C57.0319 127.036 58.7479 127.036 59.2039 127.036C59.4799 127.036 59.6479 127.048 59.8519 127.072ZM67.1558 124.792C67.0118 124.54 66.5798 123.772 65.2838 123.772C63.8678 123.772 62.5598 124.768 62.5598 127.06C62.5598 129.7 64.3478 130.12 65.1518 130.12C65.5598 130.12 66.1478 130.012 66.6398 129.676C66.9518 129.46 67.0838 129.208 67.1798 129.04L67.2038 130H68.3318C68.3078 129.688 68.2838 129.172 68.2838 129.04V121.348H67.1558V124.792ZM67.1918 126.904C67.1918 127.372 67.1918 129.328 65.4158 129.328C64.0358 129.328 63.7598 128.092 63.7598 127.024C63.7598 126.616 63.7598 124.612 65.4158 124.612C66.0518 124.612 66.4958 124.912 66.7358 125.224C66.9878 125.548 67.1918 126.028 67.1918 126.904ZM69.1518 130.192H69.9438L72.7398 121.444H71.9598L69.1518 130.192ZM74.8401 121.336L77.3001 130H78.5961L80.7441 122.596L82.7481 130H84.0801L86.6481 121.336H85.4721L83.5041 128.524L81.5481 121.336H80.0601L77.9961 128.464L76.1241 121.336H74.8401ZM94.3041 123.676C94.1481 121.708 92.4201 121.216 91.1961 121.216C88.1121 121.216 87.4041 123.94 87.4041 125.764C87.4041 127.444 87.9921 130.132 91.0401 130.132C92.5281 130.132 94.1001 129.424 94.2801 127.72H92.9601C92.9241 127.924 92.8521 128.296 92.5401 128.632C92.1681 129.016 91.6641 129.148 91.1361 129.148C89.1561 129.148 88.6881 127.384 88.6881 125.752C88.6881 124.312 89.0601 122.176 91.1481 122.176C92.8161 122.176 92.9721 123.376 93.0201 123.676H94.3041Z" fill="#9AD4DF"/>
<g clip-path="url(#clip3_366_7195)">
<path fill-rule="evenodd" clip-rule="evenodd" d="M196.273 168.114V163.66C196.273 162.429 197.27 161.432 198.5 161.432C199.73 161.432 200.727 162.429 200.727 163.66C200.727 163.835 200.585 163.977 200.409 163.977C200.234 163.977 200.091 163.835 200.091 163.66C200.091 162.781 199.379 162.068 198.5 162.068C197.622 162.068 196.909 162.781 196.909 163.66V168.114H214.727C215.43 168.114 216 168.684 216 169.387V178.295C216 178.999 215.432 179.569 214.727 179.569H196.273C195.57 179.569 195 178.999 195 178.295V169.387C195 168.683 195.568 168.114 196.273 168.114H196.273ZM204.227 178.932H214.727C215.08 178.932 215.364 178.648 215.364 178.295V173.523H204.227L204.227 178.932ZM215.363 172.887V169.387C215.363 169.035 215.079 168.751 214.727 168.751H204.227V172.886L215.363 172.887ZM195.637 169.387V178.295C195.637 178.647 195.921 178.932 196.273 178.932H203.591V168.751H196.273C195.92 168.751 195.637 169.034 195.637 169.387V169.387ZM206.296 171.932C205.68 171.932 205.182 171.434 205.182 170.818C205.182 170.203 205.68 169.704 206.296 169.704C206.91 169.704 207.409 170.203 207.409 170.818C207.409 171.434 206.91 171.932 206.296 171.932ZM206.296 171.296C206.559 171.296 206.773 171.082 206.773 170.818C206.773 170.555 206.559 170.341 206.296 170.341C206.032 170.341 205.818 170.555 205.818 170.818C205.818 171.082 206.032 171.296 206.296 171.296ZM201.523 171.932C200.908 171.932 200.409 171.434 200.409 170.818C200.409 170.203 200.908 169.704 201.523 169.704C202.137 169.704 202.636 170.203 202.636 170.818C202.636 171.434 202.137 171.932 201.523 171.932ZM201.523 171.296C201.786 171.296 202 171.082 202 170.818C202 170.555 201.786 170.341 201.523 170.341C201.259 170.341 201.046 170.555 201.046 170.818C201.046 171.082 201.259 171.296 201.523 171.296ZM213.295 171.932C212.68 171.932 212.181 171.434 212.181 170.818C212.181 170.203 212.68 169.704 213.295 169.704C213.911 169.704 214.409 170.203 214.409 170.818C214.409 171.434 213.911 171.932 213.295 171.932ZM213.295 171.296C213.559 171.296 213.773 171.082 213.773 170.818C213.773 170.555 213.559 170.341 213.295 170.341C213.032 170.341 212.818 170.555 212.818 170.818C212.818 171.082 213.032 171.296 213.295 171.296ZM209.795 171.932C209.181 171.932 208.682 171.434 208.682 170.818C208.682 170.203 209.181 169.704 209.795 169.704C210.41 169.704 210.909 170.203 210.909 170.818C210.909 171.434 210.41 171.932 209.795 171.932ZM209.795 171.296C210.059 171.296 210.273 171.082 210.273 170.818C210.273 170.555 210.059 170.341 209.795 170.341C209.532 170.341 209.319 170.555 209.319 170.818C209.319 171.082 209.532 171.296 209.795 171.296ZM214.409 166.205C214.585 166.205 214.727 166.347 214.727 166.523C214.727 166.699 214.585 166.841 214.409 166.841H211.228C211.052 166.841 210.909 166.699 210.909 166.523C210.909 166.347 211.052 166.205 211.228 166.205H214.409ZM208.364 166.205C208.539 166.205 208.682 166.347 208.682 166.523C208.682 166.699 208.539 166.841 208.364 166.841H205.182C205.006 166.841 204.864 166.699 204.864 166.523C204.864 166.347 205.006 166.205 205.182 166.205H208.364Z" fill="#009BB4"/>
</g>
<g clip-path="url(#clip4_366_7195)">
<path fill-rule="evenodd" clip-rule="evenodd" d="M197.273 96.1138V91.6595C197.273 90.4291 198.27 89.4316 199.5 89.4316C200.73 89.4316 201.727 90.4291 201.727 91.6595C201.727 91.8351 201.585 91.977 201.409 91.977C201.234 91.977 201.091 91.8351 201.091 91.6595C201.091 90.781 200.379 90.0681 199.5 90.0681C198.622 90.0681 197.909 90.781 197.909 91.6595V96.1138H215.727C216.43 96.1138 217 96.6839 217 97.387V106.295C217 106.999 216.432 107.569 215.727 107.569H197.273C196.57 107.569 196 106.999 196 106.295V97.387C196 96.6831 196.568 96.1138 197.273 96.1138H197.273ZM205.227 106.932H215.727C216.08 106.932 216.364 106.648 216.364 106.295V101.523H205.227L205.227 106.932ZM216.363 100.887V97.3871C216.363 97.0352 216.079 96.7505 215.727 96.7505H205.227V100.886L216.363 100.887ZM196.637 97.3871V106.295C196.637 106.647 196.921 106.932 197.273 106.932H204.591V96.7506H197.273C196.92 96.7506 196.637 97.0344 196.637 97.3872V97.3871ZM207.296 99.9316C206.68 99.9316 206.182 99.4337 206.182 98.8185C206.182 98.2032 206.68 97.7045 207.296 97.7045C207.91 97.7045 208.409 98.2032 208.409 98.8185C208.409 99.4337 207.91 99.9316 207.296 99.9316ZM207.296 99.2959C207.559 99.2959 207.773 99.0818 207.773 98.8185C207.773 98.5552 207.559 98.3411 207.296 98.3411C207.032 98.3411 206.818 98.5552 206.818 98.8185C206.818 99.0818 207.032 99.2959 207.296 99.2959ZM202.523 99.9316C201.908 99.9316 201.409 99.4337 201.409 98.8185C201.409 98.2032 201.908 97.7045 202.523 97.7045C203.137 97.7045 203.636 98.2032 203.636 98.8185C203.636 99.4337 203.137 99.9316 202.523 99.9316ZM202.523 99.2959C202.786 99.2959 203 99.0818 203 98.8185C203 98.5552 202.786 98.3411 202.523 98.3411C202.259 98.3411 202.046 98.5552 202.046 98.8185C202.046 99.0818 202.259 99.2959 202.523 99.2959ZM214.295 99.9316C213.68 99.9316 213.181 99.4337 213.181 98.8185C213.181 98.2032 213.68 97.7045 214.295 97.7045C214.911 97.7045 215.409 98.2032 215.409 98.8185C215.409 99.4337 214.911 99.9316 214.295 99.9316ZM214.295 99.2959C214.559 99.2959 214.773 99.0818 214.773 98.8185C214.773 98.5552 214.559 98.3411 214.295 98.3411C214.032 98.3411 213.818 98.5552 213.818 98.8185C213.818 99.0818 214.032 99.2959 214.295 99.2959ZM210.795 99.9316C210.181 99.9316 209.682 99.4337 209.682 98.8185C209.682 98.2032 210.181 97.7045 210.795 97.7045C211.41 97.7045 211.909 98.2032 211.909 98.8185C211.909 99.4337 211.41 99.9316 210.795 99.9316ZM210.795 99.2959C211.059 99.2959 211.273 99.0818 211.273 98.8185C211.273 98.5552 211.059 98.3411 210.795 98.3411C210.532 98.3411 210.319 98.5552 210.319 98.8185C210.319 99.0818 210.532 99.2959 210.795 99.2959ZM215.409 94.2051C215.585 94.2051 215.727 94.347 215.727 94.5234C215.727 94.6989 215.585 94.8408 215.409 94.8408H212.228C212.052 94.8408 211.909 94.6989 211.909 94.5234C211.909 94.347 212.052 94.2051 212.228 94.2051H215.409ZM209.364 94.2051C209.539 94.2051 209.682 94.347 209.682 94.5234C209.682 94.6989 209.539 94.8408 209.364 94.8408H206.182C206.006 94.8408 205.864 94.6989 205.864 94.5234C205.864 94.347 206.006 94.2051 206.182 94.2051H209.364Z" fill="#009BB4"/>
</g>
<defs>
<clipPath id="clip0_366_7195">
<rect width="258.383" height="266.901" fill="white"/>
</clipPath>
<clipPath id="clip1_366_7195">
<rect width="18.0331" height="18.0331" fill="white" transform="translate(56 91)"/>
</clipPath>
<clipPath id="clip2_366_7195">
<rect width="18.0331" height="18.0331" fill="white" transform="translate(56 163)"/>
</clipPath>
<clipPath id="clip3_366_7195">
<rect width="21" height="21" fill="white" transform="translate(195 160)"/>
</clipPath>
<clipPath id="clip4_366_7195">
<rect width="21" height="21" fill="white" transform="translate(196 88)"/>
</clipPath>
</defs>
</svg>
