<svg width="97" height="96" viewBox="0 0 97 96" fill="none" xmlns="http://www.w3.org/2000/svg">
<circle cx="48.5869" cy="48" r="48" fill="#009BB4"/>
<path d="M31.7848 26.6191H33.4488V20.1871H35.7421V18.9071H29.4915V20.1871H31.7848V26.6191ZM39.8375 24.3258C39.8588 23.8778 39.8801 23.0885 39.5175 22.3525C39.0268 21.3498 38.1095 21.0511 37.3415 21.0511C36.7548 21.0511 36.2428 21.2218 35.8268 21.4991C34.9201 22.1285 34.7068 23.1738 34.7068 24.0485C34.7068 24.9125 34.9095 25.6378 35.4001 26.1498C35.9655 26.7365 36.8401 26.8218 37.2988 26.8218C38.0881 26.8218 38.7921 26.6085 39.1868 26.1925C39.6241 25.7338 39.6775 25.2751 39.6988 25.0191H38.2588C38.1095 25.6165 37.7148 25.7658 37.3201 25.7658C36.2215 25.7658 36.2215 24.6778 36.2215 24.3258H39.8375ZM36.2748 23.3338C36.3068 22.7045 36.5948 22.1285 37.2881 22.1285C38.2055 22.1285 38.2268 23.0885 38.2268 23.3338H36.2748ZM45.2739 23.1418C45.2632 21.6805 44.0792 21.1258 43.0765 21.1258C42.3619 21.1258 40.5592 21.4671 40.5592 23.9205C40.5592 24.7845 40.7725 25.4991 41.2419 26.0431C41.7325 26.5978 42.3619 26.7578 43.0765 26.7578C43.7485 26.7578 44.2285 26.5871 44.6125 26.2565C45.2312 25.7338 45.2845 25.0831 45.3059 24.6671H43.7485C43.6845 25.6271 43.1939 25.7018 43.0232 25.7018C42.9059 25.7018 42.7459 25.6805 42.5965 25.5205C42.2339 25.1258 42.2019 24.1658 42.2019 23.8671C42.2019 23.2805 42.2872 22.1498 43.0339 22.1498C43.6419 22.1498 43.7059 22.9498 43.7272 23.1418H45.2739ZM46.0469 26.6191H47.6362L47.6255 23.3231C47.6255 22.4805 48.1909 22.2245 48.6389 22.2245C49.5242 22.2245 49.5242 23.0885 49.5242 23.3978V26.6191H51.0922V23.3445C51.0922 22.6405 50.9322 22.1498 50.7402 21.8831C50.4842 21.5525 49.9722 21.1578 49.1722 21.1578C48.1909 21.1578 47.7962 21.7125 47.6149 21.9685V18.9178H46.0469V26.6191ZM57.4104 24.3258C57.4317 23.8778 57.453 23.0885 57.0904 22.3525C56.5997 21.3498 55.6824 21.0511 54.9144 21.0511C54.3277 21.0511 53.8157 21.2218 53.3997 21.4991C52.493 22.1285 52.2797 23.1738 52.2797 24.0485C52.2797 24.9125 52.4824 25.6378 52.973 26.1498C53.5384 26.7365 54.413 26.8218 54.8717 26.8218C55.661 26.8218 56.365 26.6085 56.7597 26.1925C57.197 25.7338 57.2504 25.2751 57.2717 25.0191H55.8317C55.6824 25.6165 55.2877 25.7658 54.893 25.7658C53.7944 25.7658 53.7944 24.6778 53.7944 24.3258H57.4104ZM53.8477 23.3338C53.8797 22.7045 54.1677 22.1285 54.861 22.1285C55.7784 22.1285 55.7997 23.0885 55.7997 23.3338H53.8477ZM58.4841 26.6191H60.0735V23.4511C60.0735 23.0885 60.0735 22.2351 61.0655 22.2351C61.9401 22.2351 61.9508 23.0031 61.9508 23.4191V26.6191H63.5401V23.9205C63.5401 23.1205 63.5615 22.2351 64.5108 22.2351C65.3321 22.2351 65.4175 22.8751 65.4175 23.4511V26.6191H67.0068V23.5791C67.0068 23.1098 67.0281 22.4591 66.7401 21.9898C66.6228 21.7765 66.1855 21.1258 65.0975 21.1258C64.5428 21.1258 63.8175 21.2645 63.3695 22.1285C63.2628 21.8725 62.9108 21.1151 61.6735 21.1151C60.5961 21.1151 60.1801 21.6911 60.0095 21.9258L59.9561 21.2325H58.4308C58.4628 21.5738 58.4841 21.9045 58.4841 22.2458V26.6191ZM18.7669 41.6191H24.0469V40.3391H20.4202V38.2591H23.7055V37.0005H20.4202V35.1658H23.9295V33.9071H18.7669V41.6191ZM25.2237 41.6191H26.813V38.4511C26.813 38.0885 26.813 37.2351 27.805 37.2351C28.6797 37.2351 28.6904 38.0031 28.6904 38.4191V41.6191H30.2797V38.9205C30.2797 38.1205 30.301 37.2351 31.2504 37.2351C32.0717 37.2351 32.157 37.8751 32.157 38.4511V41.6191H33.7464V38.5791C33.7464 38.1098 33.7677 37.4591 33.4797 36.9898C33.3624 36.7765 32.925 36.1258 31.837 36.1258C31.2824 36.1258 30.557 36.2645 30.109 37.1285C30.0024 36.8725 29.6504 36.1151 28.413 36.1151C27.3357 36.1151 26.9197 36.6911 26.749 36.9258L26.6957 36.2325H25.1704C25.2024 36.5738 25.2237 36.9045 25.2237 37.2458V41.6191ZM35.2113 36.2325V43.6885H36.822V41.0005C36.9606 41.1818 37.3553 41.6938 38.326 41.6938C39.8833 41.6938 40.6726 40.3391 40.6726 38.8138C40.6726 37.1711 39.83 36.1258 38.4326 36.1258C38.1766 36.1258 37.2806 36.1365 36.79 37.0005L36.7473 36.2325H35.2113ZM37.9206 40.6591C36.758 40.6591 36.7473 39.2938 36.7473 38.9738C36.7473 37.5231 37.4726 37.1391 37.9846 37.1391C38.9126 37.1391 39.0726 38.2378 39.0726 38.8778C39.0726 39.9445 38.6673 40.6591 37.9206 40.6591ZM41.8921 41.6191H43.4601V37.3525H44.4628V36.2325H43.4601V35.6031C43.4601 35.3258 43.4601 34.8991 44.2708 34.8991C44.3988 34.8991 44.4415 34.9098 44.6015 34.9311V33.8325C44.1535 33.7791 43.8548 33.7791 43.7481 33.7791C42.2121 33.7791 41.8921 34.5471 41.8921 35.4965V36.2325H41.0921V37.3525H41.8921V41.6191ZM49.7958 39.3258C49.8171 38.8778 49.8385 38.0885 49.4758 37.3525C48.9851 36.3498 48.0678 36.0511 47.2998 36.0511C46.7131 36.0511 46.2011 36.2218 45.7851 36.4991C44.8785 37.1285 44.6651 38.1738 44.6651 39.0485C44.6651 39.9125 44.8678 40.6378 45.3585 41.1498C45.9238 41.7365 46.7985 41.8218 47.2571 41.8218C48.0465 41.8218 48.7505 41.6085 49.1451 41.1925C49.5825 40.7338 49.6358 40.2751 49.6571 40.0191H48.2171C48.0678 40.6165 47.6731 40.7658 47.2785 40.7658C46.1798 40.7658 46.1798 39.6778 46.1798 39.3258H49.7958ZM46.2331 38.3338C46.2651 37.7045 46.5531 37.1285 47.2465 37.1285C48.1638 37.1285 48.1851 38.0885 48.1851 38.3338H46.2331ZM50.8802 41.6191H52.4695L52.4589 38.3231C52.4589 37.4805 53.0242 37.2245 53.4722 37.2245C54.3575 37.2245 54.3575 38.0885 54.3575 38.3978V41.6191H55.9255V38.3445C55.9255 37.6405 55.7655 37.1498 55.5735 36.8831C55.3175 36.5525 54.8055 36.1578 54.0055 36.1578C53.0242 36.1578 52.6295 36.7125 52.4482 36.9685V33.9178H50.8802V41.6191ZM57.3584 41.6191H58.937V33.9071H57.3584V41.6191ZM60.2738 36.2325V39.5818C60.2738 39.8485 60.2738 40.5951 60.6258 41.0325C60.9245 41.4271 61.5218 41.7578 62.2471 41.7578C63.2711 41.7578 63.6765 41.1391 63.8365 40.9045L63.8898 41.6191H65.4258C65.4045 41.4698 65.3938 41.3738 65.3831 41.2245C65.3831 41.0858 65.3725 40.9471 65.3511 39.7845V36.2325H63.7298V38.9525C63.7298 39.8698 63.7298 40.6271 62.7165 40.6271C61.8738 40.6271 61.8738 39.9125 61.8738 39.4431V36.2325H60.2738ZM66.8693 41.6191H68.4586V38.4618C68.4586 38.0458 68.5546 37.7791 68.6506 37.6405C68.8213 37.3845 69.1306 37.2245 69.472 37.2245C69.8773 37.2245 70.1226 37.4485 70.24 37.6831C70.3253 37.8538 70.3253 38.0458 70.3253 38.2698V41.6191H71.936V38.7071C71.936 37.7045 71.904 37.4271 71.7866 37.0965C71.648 36.7231 71.2 36.0831 70.144 36.0831C68.9706 36.0831 68.544 36.7765 68.3946 37.0218L68.352 36.2111H66.8373C66.8693 36.5845 66.8693 37.1711 66.8693 37.1925V41.6191ZM76.9955 36.2538L76.9421 36.9685C76.7821 36.7338 76.4195 36.2005 75.4381 36.2005C73.8915 36.2005 73.1341 37.5018 73.1341 38.8671C73.1341 40.1685 73.8595 41.5125 75.4061 41.5125C75.7901 41.5125 76.3555 41.4378 76.8568 40.7765C76.8461 41.5978 76.8461 41.7898 76.7821 42.0565C76.6755 42.5365 76.2701 42.7605 75.8008 42.7605C74.9581 42.7605 74.8835 42.1738 74.8621 42.0138H73.3475C73.4435 43.6458 74.9475 43.7418 75.7155 43.7418C76.7501 43.7418 78.4035 43.5498 78.4035 41.5658V37.5871C78.4035 37.0431 78.4355 36.6805 78.4781 36.2538H76.9955ZM74.7128 38.8671C74.7128 37.7151 75.2035 37.2565 75.8008 37.2565C76.7608 37.2565 76.8781 38.2911 76.8781 38.8991C76.8781 39.1338 76.8781 40.4351 75.7688 40.4351C74.7128 40.4351 74.7128 39.1338 74.7128 38.8671Z" fill="white"/>
<path d="M35.4057 81.3962H40.924C41.9229 81.3962 42.7381 80.5971 42.7673 79.6054C44.2431 80.3725 45.8692 80.8887 47.6176 81.1425C47.6526 81.1468 47.6876 81.1498 47.7226 81.1498H58.1118C59.1865 81.1498 59.7757 80.6685 60.0819 80.266C60.6463 79.5208 60.6521 78.5131 60.4947 77.641C61.4295 77.2371 62.0478 76.6771 62.3365 75.9742C62.602 75.3267 62.5801 74.5902 62.2709 73.7779C63.0759 73.1377 63.5878 72.2131 63.6476 71.2448C63.6884 70.5637 63.5047 69.9206 63.1284 69.3854C64.1653 68.5162 64.5343 67.0841 64.3184 65.9437C64.0778 64.6647 63.1751 63.8714 61.9632 63.8714L54.056 63.87C54.9295 60.4837 55.0477 57.5188 54.4206 54.8327C54.4177 54.8195 54.4148 54.8064 54.4104 54.7948C53.6623 52.2354 52.0931 51.8387 50.9075 51.9568C49.9917 52.0472 49.2756 52.8114 49.2391 53.7316C49.1298 56.5666 48.4006 58.9814 47.0137 61.1135C45.971 62.7148 44.5681 64.1337 42.745 65.4289C42.6065 64.5481 41.8423 63.8714 40.9236 63.8714L35.4053 63.8699C34.3889 63.8699 33.5605 64.6968 33.5605 65.7147V79.5512C33.562 80.5677 34.3889 81.396 35.4053 81.396L35.4057 81.3962ZM50.6963 53.7886C50.7036 53.5917 50.8567 53.4269 51.0522 53.408C51.6982 53.3424 52.5032 53.4882 53.0049 55.1857C53.594 57.7261 53.4453 60.5729 52.5469 63.8717H51.2651C50.8626 63.8717 50.5359 64.1983 50.5359 64.6008C50.5359 65.0033 50.8626 65.33 51.2651 65.33H61.9592C62.5834 65.33 62.805 65.8112 62.8809 66.2152C63.088 67.3119 62.439 68.2685 61.6938 68.5602C61.4444 68.6579 61.268 68.8839 61.2359 69.1493C61.2023 69.4147 61.319 69.6773 61.5363 69.8333C62.1167 70.2474 62.2115 70.7812 62.1882 71.1574C62.1459 71.8414 61.6909 72.5006 60.9996 72.8768C60.6496 73.0679 60.5169 73.5039 60.7036 73.8583C61.0477 74.5116 61.1425 75.0381 60.985 75.4231C60.7634 75.9641 60.0109 76.301 59.4173 76.4891C59.0425 76.6073 58.8296 77.0025 58.9361 77.3816C59.1942 78.2989 59.1884 79.031 58.9171 79.3883C58.764 79.591 58.4913 79.6945 58.1092 79.6945L47.7753 79.6916C45.9378 79.4175 44.2549 78.8283 42.7674 77.9373V67.1778C47.8817 63.8469 50.476 59.4632 50.6963 53.7889L50.6963 53.7886ZM35.0208 65.7147C35.0208 65.5018 35.1943 65.3283 35.4073 65.3283H40.9255C41.1384 65.3283 41.312 65.5018 41.312 65.7147V79.5512C41.312 79.7641 41.1385 79.9377 40.9255 79.9377H35.4058C35.1929 79.9377 35.0193 79.7641 35.0193 79.5512L35.0208 65.7147Z" fill="white"/>
</svg>
