<svg width="17" height="17" viewBox="0 0 17 17" fill="none" xmlns="http://www.w3.org/2000/svg">
	<g clip-path="url(#clip0_763_1148)">
		<path d="M10.7264 11.4602C10.5416 11.4602 10.3514 11.3872 10.2106 11.2457L5.75108 6.78614C5.46351 6.49856 5.46351 6.03601 5.75108 5.75377C6.03866 5.46619 6.50121 5.46619 6.78345 5.75377L11.243 10.2133C11.5306 10.5009 11.5306 10.9634 11.243 11.2457C11.1015 11.3872 10.9113 11.4602 10.7264 11.4602H10.7264Z" fill="#313131"/>
		<path d="M8.49648 16.0999C4.30473 16.0999 0.896484 12.6917 0.896484 8.4999C0.896484 4.30815 4.30473 0.899902 8.49648 0.899902C12.6882 0.899902 16.0965 4.30815 16.0965 8.4999C16.0965 12.6917 12.6882 16.0999 8.49648 16.0999ZM8.49648 2.36038C5.11258 2.36038 2.35716 5.11581 2.35716 8.49971C2.35716 11.8836 5.11258 14.639 8.49648 14.639C11.8804 14.639 14.6358 11.8836 14.6358 8.49971C14.6358 5.11581 11.8804 2.36038 8.49648 2.36038Z" fill="#313131"/>
		<path d="M6.26688 11.4602C6.08201 11.4602 5.89182 11.3872 5.75108 11.2457C5.46351 10.9581 5.46351 10.4956 5.75108 10.2133L10.2106 5.75377C10.4982 5.46619 10.9608 5.46619 11.243 5.75377C11.5306 6.04135 11.5306 6.5039 11.243 6.78614L6.78345 11.2457C6.64195 11.3872 6.45176 11.4602 6.2669 11.4602H6.26688Z" fill="#313131"/>
	</g>
	<defs>
		<clipPath id="clip0_763_1148">
			<rect width="15.2" height="15.2" fill="white" transform="translate(0.896484 0.899902)"/>
		</clipPath>
	</defs>
</svg>
